<svg width="80" height="81" viewBox="0 0 80 81" fill="none" xmlns="http://www.w3.org/2000/svg">
    <path d="M72.5839 30.7688C72.9573 29.4335 73.1461 28.0551 73.1461 26.6549C73.1461 18.2446 66.3027 11.4023 57.8909 11.4023C57.2861 11.4023 56.6864 11.4369 56.0969 11.5058C54.89 8.50335 52.8925 5.911 50.2633 3.95241C47.2059 1.67506 43.5697 0.471313 39.7477 0.471313C35.9258 0.471313 32.2897 1.67506 29.2323 3.95241C26.6031 5.911 24.6056 8.50303 23.3988 11.5054C22.8105 11.4369 22.2106 11.4023 21.6045 11.4023C13.1955 11.4023 6.35391 18.2446 6.35391 26.6549C6.35391 28.0551 6.54266 29.4335 6.91609 30.7688C3.235 33.0674 1 37.0563 1 41.4744C1 48.4415 6.66734 54.1096 13.6334 54.1096H16.0256V59.1907C16.0256 61.0146 17.5092 62.4983 19.3328 62.4983H19.9502C20.37 63.9477 20.9489 65.3443 21.6803 66.6712L21.2472 67.1044C20.6214 67.7262 20.2761 68.5562 20.2745 69.4413C20.2731 70.3287 20.6172 71.1624 21.2428 71.788L24.7058 75.256C25.9984 76.5405 28.0967 76.5387 29.3813 75.2541L29.8227 74.8143C31.1483 75.5444 32.5433 76.1224 33.9916 76.5418V77.1594C33.9916 78.9857 35.4772 80.4713 37.3031 80.4713H42.1966C44.0227 80.4713 45.5081 78.9855 45.5081 77.1594V76.5413C46.9534 76.1219 48.3477 75.5443 49.6745 74.8146L50.1122 75.2526C51.4028 76.5432 53.5025 76.543 54.7931 75.2524L58.2598 71.7852C59.5439 70.4926 59.5423 68.3944 58.2562 67.108L57.8183 66.6699C58.5477 65.3432 59.1264 63.9471 59.5478 62.4983H60.1627C61.9888 62.4983 63.4742 61.0146 63.4742 59.1907V54.1096H65.8664C72.8325 54.1096 78.4998 48.4415 78.4998 41.4744C78.5 37.0563 76.265 33.0674 72.5839 30.7688ZM60.3494 59.1907C60.3494 59.288 60.262 59.3733 60.1628 59.3733H58.3383C57.608 59.3733 56.975 59.8791 56.8142 60.5916C56.3744 62.5387 55.608 64.3873 54.5367 66.0858C54.1473 66.7032 54.2372 67.508 54.7534 68.0241L56.0464 69.3174C56.1148 69.3858 56.1131 69.5122 56.0466 69.5793L52.5836 73.0427C52.5417 73.0846 52.4894 73.0933 52.453 73.0933C52.4164 73.0933 52.3641 73.0844 52.3223 73.0429L51.0294 71.7496C50.513 71.2333 49.708 71.1433 49.0906 71.5329C47.3902 72.6057 45.5442 73.3704 43.6041 73.8055C42.8906 73.9655 42.3834 74.599 42.3834 75.3302V77.1594C42.3834 77.2572 42.2945 77.3463 42.1969 77.3463H37.3034C37.2039 77.3463 37.1169 77.259 37.1169 77.1594V75.3302C37.1169 74.5987 36.6095 73.9652 35.8958 73.8054C33.9519 73.3702 32.1066 72.6058 30.4112 71.5338C29.7944 71.1437 28.9897 71.2324 28.473 71.7477L27.1737 73.0427C27.1042 73.1119 26.9803 73.1104 26.9131 73.0435L23.4539 69.5793C23.4092 69.5346 23.3998 69.4824 23.3998 69.4463C23.4 69.3963 23.4169 69.354 23.4537 69.3174L24.7469 68.0241C25.2638 67.5073 25.3531 66.701 24.9622 66.0835C23.8878 64.3868 23.1223 62.5399 22.6869 60.5944C22.5272 59.8807 21.8936 59.3733 21.162 59.3733H19.3328C19.2341 59.3733 19.1506 59.2897 19.1506 59.1907V54.1096H26.4292C26.2597 54.9716 26.1711 55.851 26.1711 56.7415C26.1711 64.2287 32.2616 70.3199 39.7478 70.3199C47.2366 70.3199 53.3291 64.2287 53.3291 56.7415C53.3291 55.8532 53.2397 54.974 53.0684 54.1096H60.3495V59.1907H60.3494ZM65.8666 50.9846H46.7623C45.8995 50.9846 45.1998 51.6843 45.1998 52.5471C45.1998 53.4099 45.8995 54.1096 46.7623 54.1096H49.8645C50.0887 54.968 50.2041 55.8491 50.2041 56.7415C50.2041 62.5055 45.5133 67.1949 39.7478 67.1949C33.9847 67.1949 29.2961 62.5054 29.2961 56.7415C29.2961 55.8452 29.4103 54.9641 29.6322 54.1096H32.7333C33.5961 54.1096 34.2958 53.4099 34.2958 52.5471C34.2958 51.6843 33.5961 50.9846 32.7333 50.9846H13.6334C8.39047 50.9846 4.125 46.7183 4.125 41.4744C4.125 37.8002 6.17875 34.5204 9.48484 32.9146C10.2117 32.5615 10.5495 31.7123 10.2636 30.9563C9.74297 29.5801 9.47906 28.133 9.47906 26.6551C9.47906 19.9679 14.9184 14.5274 21.6047 14.5274C22.4662 14.5274 23.3064 14.6141 24.102 14.7848C24.8897 14.954 25.6772 14.496 25.92 13.7276C27.8338 7.66788 33.3908 3.59631 39.7477 3.59631C46.1048 3.59631 51.6617 7.66772 53.5755 13.7276C53.818 14.4954 54.6042 14.9537 55.3919 14.7851C56.1927 14.614 57.0334 14.5274 57.8908 14.5274C64.5794 14.5274 70.0209 19.9679 70.0209 26.6551C70.0209 28.133 69.757 29.5802 69.2364 30.9563C68.9505 31.7123 69.2883 32.5615 70.0152 32.9146C73.3213 34.5204 75.375 37.8002 75.375 41.4744C75.375 46.7183 71.1095 50.9846 65.8666 50.9846Z" fill="#0A1F69"/>
    <path d="M56.252 22.6393C55.3891 22.6393 54.6895 23.339 54.6895 24.2018V39.6149C54.6895 40.4777 55.3891 41.1774 56.252 41.1774C57.1148 41.1774 57.8145 40.4777 57.8145 39.6149V24.2018C57.8145 23.339 57.1149 22.6393 56.252 22.6393Z" fill="#0A1F69"/>
    <path d="M43.8084 22.6393H39.4375C38.5886 22.6393 37.875 23.3504 37.875 24.2018V39.8983C37.875 40.7612 38.5747 41.4608 39.4375 41.4608C40.3003 41.4608 41 40.7612 41 39.8983V34.6346C41.9719 34.6287 43.1662 34.6224 43.8084 34.6224C47.1606 34.6224 49.8878 31.9346 49.8878 28.6308C49.8878 25.3271 47.1606 22.6393 43.8084 22.6393ZM43.8084 31.4972C43.1691 31.4972 41.9919 31.5033 41.0231 31.5093C41.0184 30.5107 41.0134 29.2852 41.0134 28.6307C41.0134 28.076 41.0095 26.8043 41.0058 25.7641H43.8086C45.41 25.7641 46.763 27.0768 46.763 28.6307C46.763 30.1846 45.4098 31.4972 43.8084 31.4972Z" fill="#0A1F69"/>
    <path d="M27.1315 23.8715C27.1274 23.8607 27.1232 23.8498 27.1188 23.8392C26.8247 23.1096 26.1272 22.6381 25.3419 22.6381C24.5566 22.6381 23.8591 23.1096 23.5651 23.8392C23.5613 23.8485 23.5576 23.8577 23.5541 23.8671L17.6599 39.3423C17.3527 40.1487 17.7574 41.0513 18.5638 41.3585C19.3704 41.6657 20.2729 41.261 20.5801 40.4546L21.6644 37.6076H28.976L30.049 40.4501C30.2851 41.0757 30.8796 41.4613 31.511 41.4613C31.6943 41.4613 31.8807 41.4288 32.0624 41.3602C32.8697 41.0556 33.2771 40.154 32.9724 39.3467L27.1315 23.8715ZM22.8547 34.4826L25.3368 27.966L27.7965 34.4826H22.8547Z" fill="#0A1F69"/>
    <path d="M39.7476 50.9846C38.8847 50.9846 38.1851 51.6843 38.1851 52.5471C38.1851 53.4099 38.8847 54.1096 39.7476 54.1096H39.7566C40.6194 54.1096 41.3147 53.4099 41.3147 52.5471C41.3147 51.6843 40.6105 50.9846 39.7476 50.9846Z" fill="#0A1F69"/>
</svg>