<svg width="25" height="25" viewBox="0 0 25 25" fill="none" xmlns="http://www.w3.org/2000/svg">
<path d="M19.8664 2.42055H18.9712V1.51472C18.9712 0.997169 18.5516 0.577637 18.0341 0.577637C17.5165 0.577637 17.097 0.997169 17.097 1.51472V2.42055H7.90295V1.51472C7.90295 0.997169 7.48342 0.577637 6.96587 0.577637C6.44832 0.577637 6.02879 0.997169 6.02879 1.51472V2.42055H5.13364C2.57864 2.42055 0.5 4.49919 0.5 7.05414V19.9333C0.5 22.4883 2.57864 24.567 5.13364 24.567H19.8664C22.4214 24.567 24.5 22.4883 24.5 19.9333V7.05414C24.5 4.49919 22.4214 2.42055 19.8664 2.42055ZM5.13364 4.29472H6.02879V6.12203C6.02879 6.63958 6.44832 7.05911 6.96587 7.05911C7.48342 7.05911 7.90295 6.63958 7.90295 6.12203V4.29472H17.097V6.12203C17.097 6.63958 17.5166 7.05911 18.0341 7.05911C18.5517 7.05911 18.9712 6.63958 18.9712 6.12203V4.29472H19.8664C21.3879 4.29472 22.6258 5.5326 22.6258 7.05414V7.94934H2.37417V7.05414C2.37417 5.5326 3.61205 4.29472 5.13364 4.29472ZM19.8664 22.6928H5.13364C3.61205 22.6928 2.37417 21.4549 2.37417 19.9333V9.8235H22.6258V19.9333C22.6258 21.4549 21.3879 22.6928 19.8664 22.6928ZM8.82443 13.5094C8.82443 14.0269 8.4049 14.4465 7.88735 14.4465H6.04444C5.52689 14.4465 5.10735 14.0269 5.10735 13.5094C5.10735 12.9918 5.52689 12.5723 6.04444 12.5723H7.88735C8.40485 12.5723 8.82443 12.9918 8.82443 13.5094ZM19.8927 13.5094C19.8927 14.0269 19.4732 14.4465 18.9556 14.4465H17.1127C16.5951 14.4465 16.1756 14.0269 16.1756 13.5094C16.1756 12.9918 16.5951 12.5723 17.1127 12.5723H18.9556C19.4731 12.5723 19.8927 12.9918 19.8927 13.5094ZM14.3532 13.5094C14.3532 14.0269 13.9337 14.4465 13.4161 14.4465H11.5732C11.0557 14.4465 10.6361 14.0269 10.6361 13.5094C10.6361 12.9918 11.0557 12.5723 11.5732 12.5723H13.4161C13.9336 12.5723 14.3532 12.9918 14.3532 13.5094ZM8.82443 19.0382C8.82443 19.5557 8.4049 19.9752 7.88735 19.9752H6.04444C5.52689 19.9752 5.10735 19.5557 5.10735 19.0382C5.10735 18.5206 5.52689 18.1011 6.04444 18.1011H7.88735C8.40485 18.1011 8.82443 18.5206 8.82443 19.0382ZM19.8927 19.0382C19.8927 19.5557 19.4732 19.9752 18.9556 19.9752H17.1127C16.5951 19.9752 16.1756 19.5557 16.1756 19.0382C16.1756 18.5206 16.5951 18.1011 17.1127 18.1011H18.9556C19.4731 18.1011 19.8927 18.5206 19.8927 19.0382ZM14.3532 19.0382C14.3532 19.5557 13.9337 19.9752 13.4161 19.9752H11.5732C11.0557 19.9752 10.6361 19.5557 10.6361 19.0382C10.6361 18.5206 11.0557 18.1011 11.5732 18.1011H13.4161C13.9336 18.1011 14.3532 18.5206 14.3532 19.0382Z" fill="#3E3E3E"/>
</svg>
