<svg width="21" height="21" viewBox="0 0 21 21" fill="none" xmlns="http://www.w3.org/2000/svg">
<path d="M10.873 0.987061C5.3501 0.987061 0.873016 5.46414 0.873016 10.9871C0.873016 16.51 5.3501 20.9871 10.873 20.9871C16.3959 20.9871 20.873 16.51 20.873 10.9871C20.873 5.46414 16.3959 0.987061 10.873 0.987061ZM8.4251 15.1319H6.4001V8.61519H8.4251V15.1319ZM7.4001 7.81519C6.76052 7.81519 6.34697 7.36206 6.34697 6.80164C6.34697 6.22977 6.77302 5.79019 7.42614 5.79019C8.07927 5.79019 8.47927 6.22977 8.49177 6.80164C8.49177 7.36206 8.07927 7.81519 7.4001 7.81519ZM15.8209 15.1319H13.7959V11.5204C13.7959 10.6798 13.5022 10.1089 12.7699 10.1089C12.2105 10.1089 11.8782 10.4954 11.7313 10.8673C11.6772 10.9996 11.6636 11.1871 11.6636 11.3735V15.1308H9.6376V10.6933C9.6376 9.87977 9.61156 9.19956 9.58447 8.61414H11.3438L11.4366 9.51935H11.4772C11.7438 9.09435 12.397 8.46727 13.4897 8.46727C14.822 8.46727 15.8209 9.35998 15.8209 11.2787V15.1319Z" fill="white"/>
</svg>
