<svg width="24" height="18" viewBox="0 0 24 18" fill="none" xmlns="http://www.w3.org/2000/svg">
<path d="M21.8906 0.634766H2.10938C0.948656 0.634766 0 1.57925 0 2.74414V15.4004C0 16.5657 0.949266 17.5098 2.10938 17.5098H21.8906C23.0513 17.5098 24 16.5653 24 15.4004V2.74414C24 1.57897 23.0509 0.634766 21.8906 0.634766ZM21.5667 2.04102C20.8847 2.72525 12.874 10.7621 12.5449 11.0923C12.27 11.368 11.7301 11.3682 11.4551 11.0923L2.43328 2.04102H21.5667ZM1.40625 15.1419V3.00266L7.45617 9.07227L1.40625 15.1419ZM2.43328 16.1035L8.44894 10.0683L10.4592 12.0851C11.283 12.9115 12.7174 12.9112 13.5409 12.0851L15.5511 10.0683L21.5667 16.1035H2.43328ZM22.5938 15.1419L16.5438 9.07227L22.5938 3.00266V15.1419Z" fill="#3E3E3E"/>
</svg>
