<svg width="70" height="67" viewBox="0 0 70 67" fill="none" xmlns="http://www.w3.org/2000/svg">
<circle cx="40.4688" cy="36.5938" r="29.5312" fill="#F2F5FF"/>
<path d="M64.9555 0.668334C64.5556 0.440185 64.0641 0.444286 63.668 0.678588L51.4593 7.90169L49.4479 7.35964C45.75 6.36322 41.8876 6.869 38.5711 8.78378L32.8012 12.1151L27.0313 8.78391C23.7148 6.86925 19.8522 6.36348 16.1545 7.35977L14.1431 7.90182L1.9344 0.678716C1.53821 0.444158 1.04667 0.440441 0.646893 0.668334C0.246991 0.896355 0 1.32138 0 1.78178V18.646C0 19.0995 0.239685 19.5191 0.630102 19.7497L5.59722 22.6822L6.507 26.0971C7.24207 28.8559 8.76683 31.3074 10.9166 33.1864L16.3337 37.9211C16.8742 38.3936 17.5148 38.7044 18.1996 38.8366L18.9401 42.5911C19.4925 45.3923 20.8531 47.9386 22.8748 49.9546L25.3775 52.4501L25.5044 64.8563C25.5116 65.5591 26.0834 66.125 26.7861 66.125H41.2954C41.6376 66.125 41.9656 65.9881 42.2063 65.745C42.447 65.5018 42.5806 65.1724 42.5771 64.8302L42.4502 52.4394L43.4399 51.4527C43.9412 50.953 43.9423 50.1413 43.4424 49.6401C42.9426 49.1388 42.1311 49.1376 41.6298 49.6375L40.2581 51.0052C40.0137 51.2489 39.8779 51.5809 39.8815 51.926L40.0006 63.5617H28.0551L27.9357 51.8998C27.9323 51.5638 27.797 51.2426 27.5592 51.0052L24.6852 48.1395C23.0256 46.4847 21.9089 44.3947 21.4555 42.0954L20.0635 35.0366C19.9883 34.6551 20.068 34.2683 20.2879 33.9476C20.5077 33.6269 20.8395 33.4131 21.2225 33.3456C21.9645 33.2149 22.6862 33.6855 22.8657 34.4171L23.5849 37.3509C23.7897 38.1857 24.5569 38.7167 25.411 38.6138C26.2643 38.5106 26.8837 37.8119 26.8837 36.9524V20.4284C26.8837 19.6693 27.5012 19.0518 28.2603 19.0518C28.9668 19.0518 29.5499 19.5869 29.6275 20.273L29.6368 35.5891C29.6368 36.2971 30.2107 36.8709 30.9186 36.8709C31.6265 36.8709 32.2003 36.2971 32.2003 35.5891L32.191 17.9178C32.191 17.1588 32.8085 16.5412 33.5676 16.5412C34.3266 16.5412 34.9441 17.1588 34.9441 17.9178V35.5891C34.9441 36.2971 35.518 36.8709 36.2259 36.8709C36.9338 36.8709 37.5076 36.2971 37.5076 35.5891V20.273C37.5852 19.5869 38.1683 19.0518 38.8748 19.0518C39.6339 19.0518 40.2514 19.6693 40.2514 20.4284V35.589C40.2514 36.2969 40.8253 36.8708 41.5332 36.8708C42.2411 36.8708 42.8149 36.2969 42.8149 35.589V23.1962C42.8203 22.4417 43.4354 21.8294 44.1911 21.8294C44.9501 21.8294 45.5677 22.447 45.5677 23.206V40.1502C45.5677 40.8581 46.1415 41.4319 46.8494 41.4319C47.5573 41.4319 48.1312 40.8581 48.1312 40.1502V38.618C48.5435 38.4519 48.9283 38.2193 49.2695 37.921L54.6866 33.1863C56.8362 31.3072 58.3611 28.8559 59.0962 26.097L60.006 22.6822L64.9731 19.7497C65.3636 19.5191 65.6032 19.0995 65.6032 18.646V1.78178C65.6024 1.32138 65.3554 0.896355 64.9555 0.668334ZM28.2595 16.4883C26.0869 16.4883 24.3194 18.2558 24.3194 20.4284V25.6135L23.6104 25.2041C22.9972 24.8501 22.2134 25.0602 21.8595 25.6732C21.5055 26.2863 21.7156 27.0702 22.3286 27.4241L24.3194 28.5736V31.7528L19.7716 29.127C19.027 28.6971 18.1122 28.8842 17.5965 29.5718C17.0804 30.2592 17.1564 31.1898 17.7771 31.7846L18.3171 32.302C18.2675 32.366 18.2189 32.4311 18.1727 32.4984C17.5603 33.392 17.3438 34.5244 17.5534 35.5873L12.6036 31.2562C10.839 29.7139 9.5874 27.7017 8.98408 25.4371L7.93921 21.5153C7.85269 21.1904 7.64185 20.9125 7.3523 20.7415L2.56348 17.9141V4.02943L13.3026 10.3831C13.5997 10.559 13.9552 10.6074 14.2888 10.5176L16.8217 9.83506C19.8571 9.01719 23.0274 9.43234 25.7497 11.004L31.7089 14.4444C30.7917 14.937 30.0916 15.7823 29.79 16.7977C29.3191 16.5985 28.8019 16.4883 28.2595 16.4883ZM63.0389 17.9142L58.2501 20.7416C57.9606 20.9126 57.7497 21.1905 57.6632 21.5154L56.6183 25.4371C56.015 27.7017 54.7634 29.7139 52.9988 31.2562L48.1305 35.5115V23.2062C48.1305 21.5796 47.1397 20.1802 45.73 19.5795L35.3647 13.595L39.8528 11.0039C42.5751 9.43209 45.7457 9.01706 48.7809 9.83494L51.3137 10.5175C51.6472 10.6073 52.0027 10.5589 52.2999 10.383L63.0391 4.02931V17.9142H63.0389Z" fill="#0A1F69"/>
<path d="M45.8531 47.1121C46.561 47.1121 47.1349 46.5382 47.1349 45.8303C47.1349 45.1224 46.561 44.5486 45.8531 44.5486C45.1452 44.5486 44.5714 45.1224 44.5714 45.8303C44.5714 46.5382 45.1452 47.1121 45.8531 47.1121Z" fill="#0A1F69"/>
</svg>
