<svg width="70" height="67" viewBox="0 0 70 67" fill="none" xmlns="http://www.w3.org/2000/svg">
<circle cx="40.4688" cy="36.5938" r="29.5312" fill="#F2F5FF"/>
<path d="M22.7711 19.9813C22.5493 20.2725 22.5122 20.6645 22.6754 20.9921C24.6077 24.8719 28.4918 27.282 32.8124 27.282C37.133 27.282 41.0172 24.8718 42.9494 20.9921C43.1126 20.6645 43.0756 20.2725 42.8538 19.9813C41.2446 17.8676 39.0772 16.3571 36.632 15.5861C38.0449 14.4601 38.9529 12.7265 38.9529 10.7836C38.9529 7.39777 36.1983 4.64319 32.8124 4.64319C29.4266 4.64319 26.672 7.39777 26.672 10.7836C26.672 12.7265 27.58 14.4601 28.9929 15.5861C26.5477 16.3571 24.3803 17.8676 22.7711 19.9813ZM28.5946 10.7836C28.5946 8.45789 30.4867 6.56579 32.8124 6.56579C35.1381 6.56579 37.0302 8.45789 37.0302 10.7836C37.0302 13.1093 35.1381 15.0013 32.8124 15.0013C30.4867 15.0013 28.5946 13.1092 28.5946 10.7836ZM32.8124 16.9239C35.9746 16.9239 38.9038 18.2816 40.9407 20.6701C39.2575 23.5776 36.1958 25.3594 32.8124 25.3594C29.429 25.3594 26.3674 23.5776 24.6842 20.6701C26.7211 18.2816 29.6503 16.9239 32.8124 16.9239Z" fill="#0A1F69"/>
<path d="M63.201 42.3475C62.915 41.9001 62.3207 41.7695 61.8734 42.0553C61.426 42.3411 61.2952 42.9356 61.5811 43.3829C62.9687 45.554 63.7023 48.0711 63.7023 50.662C63.7023 58.1281 57.6281 64.2023 50.162 64.2023C42.6959 64.2023 36.6218 58.1281 36.6218 50.662C36.6218 43.1959 42.6959 37.1218 50.162 37.1218C53.3207 37.1218 56.3938 38.2321 58.8151 40.2484C59.2231 40.5881 59.8293 40.5328 60.169 40.1249C60.5087 39.7169 60.4535 39.1106 60.0455 38.771C57.2792 36.4677 53.7693 35.1993 50.1621 35.1993C45.8113 35.1993 41.8751 37.0063 39.0626 39.9083L33.7737 36.7781V31.395C41.8538 30.8969 48.2753 24.1662 48.2753 15.9629C48.2753 14.8288 48.152 13.701 47.9087 12.6107C47.7931 12.0927 47.2794 11.7657 46.7612 11.8818C46.2431 11.9974 45.9167 12.5111 46.0323 13.0294C46.2449 13.9825 46.3527 14.9694 46.3527 15.9629C46.3527 23.429 40.2786 29.5031 32.8124 29.5031C25.3463 29.5031 19.2722 23.429 19.2722 15.9629C19.2722 8.49675 25.3463 2.4226 32.8124 2.4226C37.6052 2.4226 42.0876 4.99646 44.5103 9.13967C44.7783 9.59802 45.3672 9.75221 45.8254 9.4842C46.2837 9.21619 46.4379 8.62749 46.1699 8.16914C43.4038 3.43864 38.2855 0.5 32.8124 0.5C24.2862 0.5 17.3496 7.43663 17.3496 15.9629C17.3496 24.1662 23.7711 30.8968 31.8511 31.395V36.7781L26.5624 39.9081C23.7499 37.0061 19.8137 35.1992 15.4629 35.1992C9.79285 35.1992 4.58554 38.296 1.87287 43.2811C1.61909 43.7474 1.79148 44.3311 2.25778 44.5849C2.7242 44.8387 3.30778 44.6663 3.56156 44.2C5.93726 39.834 10.4975 37.1218 15.4627 37.1218C22.9288 37.1218 29.003 43.1959 29.003 50.662C29.003 58.1281 22.929 64.2023 15.4629 64.2023C7.99675 64.2023 1.9226 58.1281 1.9226 50.662C1.9226 49.8124 2.00233 48.9614 2.1596 48.1329C2.25855 47.6114 1.91594 47.1083 1.39427 47.0092C0.873247 46.9105 0.369653 47.2529 0.270574 47.7745C0.0910033 48.7208 0 49.6924 0 50.662C0 59.1883 6.93663 66.1249 15.4629 66.1249C23.9891 66.1249 30.9257 59.1883 30.9257 50.662C30.9257 47.1871 29.7733 43.9764 27.8308 41.3915L32.8124 38.4432L37.794 41.3916C35.8516 43.9765 34.6992 47.1871 34.6992 50.6621C34.6992 59.1884 41.6358 66.125 50.162 66.125C58.6883 66.125 65.6249 59.1883 65.6249 50.662C65.6249 47.7035 64.7867 44.8285 63.201 42.3475Z" fill="#0A1F69"/>
<path d="M40.1209 54.6809C39.8992 54.9721 39.862 55.3641 40.0253 55.6917C41.9575 59.5715 45.8417 61.9816 50.1623 61.9816C54.4829 61.9816 58.3671 59.5714 60.2993 55.6917C60.4625 55.3641 60.4254 54.9721 60.2037 54.6809C58.5945 52.5672 56.427 51.0567 53.9819 50.2857C55.3946 49.1597 56.3027 47.426 56.3027 45.4832C56.3027 42.0973 53.5481 39.3429 50.1624 39.3429C46.7766 39.3429 44.022 42.0975 44.022 45.4832C44.022 47.426 44.93 49.1598 46.3428 50.2857C43.8976 51.0567 41.7301 52.5672 40.1209 54.6809ZM45.9445 45.4832C45.9445 43.1575 47.8366 41.2655 50.1623 41.2655C52.488 41.2655 54.38 43.1576 54.38 45.4832C54.38 47.8089 52.4879 49.701 50.1623 49.701C47.8366 49.701 45.9445 47.8089 45.9445 45.4832ZM50.1623 51.6236C53.3245 51.6236 56.2536 52.9813 58.2906 55.3698C56.6074 58.2773 53.5457 60.0591 50.1623 60.0591C46.7789 60.0591 43.7172 58.2773 42.034 55.3698C44.0708 52.9813 47 51.6236 50.1623 51.6236Z" fill="#0A1F69"/>
<path d="M5.42127 54.6809C5.19953 54.9721 5.16236 55.3641 5.32565 55.6917C7.25787 59.5715 11.142 61.9816 15.4626 61.9816C19.7833 61.9816 23.6674 59.5714 25.5996 55.6917C25.7628 55.3641 25.7258 54.9721 25.504 54.6809C23.8948 52.5672 21.7274 51.0567 19.2822 50.2857C20.6951 49.1597 21.6031 47.426 21.6031 45.4832C21.6031 42.0973 18.8485 39.3429 15.4626 39.3429C12.0768 39.3429 9.32236 42.0975 9.32236 45.4832C9.32236 47.426 10.2303 49.1598 11.6432 50.2857C9.19803 51.0567 7.03062 52.5672 5.42127 54.6809ZM11.245 45.4832C11.245 43.1575 13.1371 41.2655 15.4626 41.2655C17.7884 41.2655 19.6805 43.1576 19.6805 45.4832C19.6805 47.8089 17.7884 49.701 15.4626 49.701C13.1371 49.701 11.245 47.8089 11.245 45.4832ZM15.4626 51.6236C18.6248 51.6236 21.554 52.9813 23.5909 55.3698C21.9077 58.2773 18.846 60.0591 15.4626 60.0591C12.0792 60.0591 9.01757 58.2773 7.33439 55.3698C9.37133 52.9813 12.3005 51.6236 15.4626 51.6236Z" fill="#0A1F69"/>
</svg>
