<svg width="201" height="158" viewBox="0 0 201 158" fill="none" xmlns="http://www.w3.org/2000/svg">
<path d="M106.205 157.466C158.283 157.466 200.5 155.002 200.5 151.961C200.5 148.921 158.283 146.456 106.205 146.456C54.1269 146.456 11.9094 148.921 11.9094 151.961C11.9094 155.002 54.1269 157.466 106.205 157.466Z" fill="#F5F5F5"/>
<path d="M172.487 138.842L169.002 140.185L171.99 147.941L175.475 146.598L172.487 138.842Z" fill="#E4897B"/>
<path d="M187.51 148.226H183.848L182.506 139.744H186.168L187.51 148.226Z" fill="#E4897B"/>
<path d="M183.614 147.803H187.729C187.88 147.803 188.001 147.905 188.025 148.051L188.556 151.305C188.609 151.64 188.327 151.961 187.982 151.956C186.547 151.932 185.856 151.849 184.047 151.849C182.934 151.849 179.568 151.966 178.031 151.966C176.494 151.966 176.383 150.449 177.02 150.308C179.879 149.69 182.053 148.839 183.006 148.027C183.177 147.881 183.396 147.803 183.614 147.803Z" fill="#263238"/>
<path d="M171.422 146.519L175.323 145.386C175.468 145.342 175.619 145.405 175.682 145.537L177.127 148.455C177.278 148.756 177.098 149.135 176.762 149.228C175.352 149.612 174.399 149.855 172.628 150.371C171.408 150.726 170.163 151.305 168.956 151.689C168.12 151.956 166.155 151.966 165.139 151.966C163.636 151.966 163.3 150.381 163.942 150.308C165.572 150.123 165.79 150.21 166.69 149.758C168.178 149.014 169.331 148.391 170.62 147.044C170.843 146.811 171.106 146.611 171.417 146.519H171.422Z" fill="#263238"/>
<path d="M165.99 29.6676C165.688 30.436 165.401 31.1022 165.075 31.7977C164.754 32.4883 164.424 33.1692 164.078 33.8452C163.383 35.1972 162.624 36.5297 161.759 37.8331C160.888 39.1365 159.935 40.4204 158.704 41.6314C158.087 42.2344 157.396 42.8326 156.535 43.3579C155.679 43.8685 154.585 44.35 153.248 44.3889C152.917 44.3986 152.577 44.3743 152.265 44.3257C151.964 44.277 151.682 44.2089 151.429 44.1311C150.918 43.9755 150.485 43.7956 150.082 43.601C149.274 43.2071 148.589 42.7743 147.927 42.3268C146.609 41.432 145.452 40.4496 144.328 39.4575C142.096 37.4392 140.078 35.309 138.171 33.0135L140.083 31.0974C142.315 32.8579 144.606 34.6184 146.901 36.2233C148.044 37.0307 149.216 37.7796 150.359 38.4264C150.928 38.7426 151.502 39.0246 152.022 39.2192C152.538 39.4234 153.009 39.4964 153.043 39.4429C153.16 39.4186 153.447 39.3116 153.812 39.0489C154.172 38.7912 154.58 38.4264 154.969 37.9936C155.757 37.1231 156.511 36.0434 157.207 34.9151C157.902 33.7771 158.559 32.5758 159.181 31.3503C159.492 30.7375 159.799 30.115 160.09 29.4925C160.373 28.8748 160.679 28.2183 160.927 27.6444L165.999 29.6821L165.99 29.6676Z" fill="#E4897B"/>
<path d="M140.593 32.2646L140.063 29.3806L136.353 31.6567C136.353 31.6567 137.525 33.4755 138.76 33.5047L140.593 32.2694V32.2646Z" fill="#E4897B"/>
<path d="M138.342 27.6444L135.438 29.6141L136.353 31.6567L140.063 29.3806L138.342 27.6444Z" fill="#E4897B"/>
<path d="M167.692 25.9422C168.592 29.2687 163.719 35.951 163.719 35.951L157.318 32.3618C157.318 32.3618 158.51 29.614 159.974 26.8176C162.332 22.2996 166.671 22.1488 167.697 25.9422H167.692Z" fill="#407BFF"/>
<path opacity="0.6" d="M167.692 25.9422C168.592 29.2687 163.719 35.951 163.719 35.951L157.318 32.3618C157.318 32.3618 158.51 29.614 159.974 26.8176C162.332 22.2996 166.671 22.1488 167.697 25.9422H167.692Z" fill="#FAFAFA"/>
<path d="M159.867 33.7869L162.381 35.1972L162.819 27.4791C161.36 28.6026 160.324 31.9874 159.867 33.7869Z" fill="#407BFF"/>
<path opacity="0.3" d="M159.867 33.7869L162.381 35.1972L162.819 27.4791C161.36 28.6026 160.324 31.9874 159.867 33.7869Z" fill="#FAFAFA"/>
<path d="M172.496 138.82L169.011 140.165L170.555 144.162L174.039 142.817L172.496 138.82Z" fill="#CE6F64"/>
<path d="M186.168 139.749H182.506L183.196 144.117H186.863L186.168 139.749Z" fill="#CE6F64"/>
<path d="M184.013 23.243C180.283 37.41 181.314 52.0778 181.003 55.0833H161.418C158.52 34.492 163.49 23.4327 163.49 23.4327C163.49 23.4327 165.046 23.0145 167.05 22.6886C167.235 22.6594 167.42 22.6351 167.609 22.6059C168.12 22.533 168.645 22.4649 169.18 22.4163C171.393 22.2169 175.011 22.2947 177.506 22.4163C177.939 22.4357 178.377 22.4698 178.805 22.5038C178.975 22.5184 179.145 22.5379 179.315 22.5524C181.839 22.8005 184.013 23.243 184.013 23.243Z" fill="#407BFF"/>
<path opacity="0.6" d="M184.013 23.243C180.283 37.41 181.314 52.0778 181.003 55.0833H161.418C158.52 34.492 163.49 23.4327 163.49 23.4327C163.49 23.4327 165.046 23.0145 167.05 22.6886C167.235 22.6594 167.42 22.6351 167.609 22.6059C168.12 22.533 168.645 22.4649 169.18 22.4163C171.393 22.2169 175.011 22.2947 177.506 22.4163C177.939 22.4357 178.377 22.4698 178.805 22.5038C178.975 22.5184 179.145 22.5379 179.315 22.5524C181.839 22.8005 184.013 23.243 184.013 23.243Z" fill="#FAFAFA"/>
<path d="M160.796 49.5148C160.864 50.3951 160.951 51.2948 161.053 52.2189L175.614 47.4917C177.89 46.8108 179.87 45.381 181.217 43.4308C181.27 42.1323 181.348 40.7657 181.455 39.3407C181.504 38.6453 181.567 37.9352 181.63 37.2155C181.698 36.4665 181.781 35.703 181.868 34.9297L160.791 49.5148H160.796Z" fill="#407BFF"/>
<path opacity="0.3" d="M160.796 49.5148C160.864 50.3951 160.951 51.2948 161.053 52.2189L175.614 47.4917C177.89 46.8108 179.87 45.381 181.217 43.4308C181.27 42.1323 181.348 40.7657 181.455 39.3407C181.504 38.6453 181.567 37.9352 181.63 37.2155C181.698 36.4665 181.781 35.703 181.868 34.9297L160.791 49.5148H160.796Z" fill="#FAFAFA"/>
<path d="M178.805 22.5039L178.61 22.9222C178.547 23.0632 176.995 26.3508 171.291 26.3508C170.532 26.3508 168.222 26.3508 167.497 24.7362C167.152 23.9629 167.332 23.1945 167.609 22.606C167.419 22.6352 167.235 22.6595 167.05 22.6887C166.802 23.3307 166.695 24.1234 167.055 24.9356C167.906 26.8371 170.454 26.8371 171.291 26.8371C177.302 26.8371 178.985 23.2723 179.057 23.1216L179.315 22.5525C179.145 22.5379 178.975 22.5185 178.805 22.5039Z" fill="#FAFAFA"/>
<path d="M177.234 13.0447C176.553 15.7244 175.741 20.6315 177.511 22.4212C177.511 22.4212 176.276 25.1398 171.296 25.1398C166.748 25.1398 169.185 22.4212 169.185 22.4212C172.215 21.7063 172.268 19.4935 171.87 17.412L177.234 13.0495V13.0447Z" fill="#E4897B"/>
<path d="M175.045 14.8247L171.87 17.4071C171.967 17.8983 172.035 18.3993 172.04 18.8856C172.969 19.8096 174.831 17.4704 175.021 16.274C175.118 15.6758 175.123 15.1068 175.045 14.8296V14.8247Z" fill="#CE6F64"/>
<path d="M166.145 11.7413C166.301 12.6848 166.899 13.4484 167.57 13.8763C168.582 14.5183 169.496 13.7061 169.559 12.5778C169.618 11.5662 169.156 10.01 167.979 9.82516C166.817 9.64036 165.965 10.6665 166.145 11.7462V11.7413Z" fill="#CE6F64"/>
<path d="M168.83 4.67481C166.957 5.38 165.819 12.5437 168.027 13.7693C170.235 14.9948 172.375 3.33739 168.83 4.67481Z" fill="#263238"/>
<path d="M165.669 7.15999C167.05 8.60926 174.092 6.86819 174.36 4.35871C174.627 1.84922 163.057 4.4122 165.669 7.15999Z" fill="#263238"/>
<path d="M177.127 8.6968C176.996 12.3492 177.103 14.4793 175.323 16.4976C172.648 19.5323 168.144 18.2387 167.191 14.6884C166.335 11.4884 166.695 6.056 170.197 4.31493C173.65 2.59817 177.258 5.04929 177.127 8.6968Z" fill="#E4897B"/>
<path d="M174.924 1.11004C177.506 0.477806 178.07 1.20731 178.187 2.96784C178.304 4.777 180.658 4.24203 179.87 6.90714C179.495 8.16675 178.552 8.05975 179.131 9.54307C179.792 11.2452 175.867 13.3122 174.943 13.3073C173.421 13.2976 173.757 10.1364 174.997 7.2573C175.926 5.09312 173.615 5.69617 170.955 6.50349C164.978 8.31751 161.01 3.11374 164.725 0.59939C166.69 -0.733165 172.088 2.02435 174.929 1.10518L174.924 1.11004Z" fill="#263238"/>
<path d="M178.858 12.5632C178.367 13.4434 177.531 14.0319 176.752 14.2702C175.58 14.6301 175.031 13.5991 175.391 12.4805C175.712 11.4786 176.709 10.0829 177.871 10.2093C179.014 10.3358 179.422 11.5565 178.863 12.5632H178.858Z" fill="#E4897B"/>
<path d="M161.418 55.0834C161.418 55.0834 158.131 84.5066 157.873 95.6728C157.605 107.286 169.015 143.523 169.015 143.523L174.856 141.072C174.856 141.072 168.057 107.967 169 96.5579C170.031 84.1224 174.291 55.0834 174.291 55.0834H161.418Z" fill="#263238"/>
<path d="M169.589 63.1614C166.972 68.5986 168.733 79.3466 170.153 85.7225C170.693 81.2239 171.335 76.3411 171.943 71.823C171.884 64.8782 171.344 59.5139 169.589 63.1614Z" fill="#182137"/>
<path d="M174.593 139.166C174.622 139.156 175.284 141.028 175.284 141.028L168.553 143.854L167.492 141.879L174.593 139.161V139.166Z" fill="#407BFF"/>
<path opacity="0.6" d="M174.593 139.166C174.622 139.156 175.284 141.028 175.284 141.028L168.553 143.854L167.492 141.879L174.593 139.161V139.166Z" fill="#FAFAFA"/>
<path d="M168.363 55.0834C168.363 55.0834 170.877 83.067 172.546 93.5475C174.369 105.03 181.543 143.27 181.543 143.27H188.249C188.249 143.27 184.232 105.959 183.473 94.5883C182.652 82.25 181.008 55.0834 181.008 55.0834H168.373H168.363Z" fill="#263238"/>
<path d="M188.351 141.247C188.381 141.247 188.575 143.397 188.575 143.397H181.202L180.677 140.965L188.351 141.242V141.247Z" fill="#407BFF"/>
<path opacity="0.6" d="M188.351 141.247C188.381 141.247 188.575 143.397 188.575 143.397H181.202L180.677 140.965L188.351 141.242V141.247Z" fill="#FAFAFA"/>
<path d="M185.779 139.312C185.745 139.312 185.72 139.287 185.715 139.258C185.676 138.918 182.053 105.229 181.372 95.0211C180.633 83.9376 179.145 59.368 179.13 59.12C179.13 59.0859 179.155 59.0567 179.189 59.0519C179.223 59.0519 179.247 59.0762 179.252 59.1102C179.267 59.3583 180.755 83.9279 181.494 95.0114C182.175 105.22 185.798 138.908 185.837 139.243C185.837 139.278 185.817 139.307 185.783 139.312H185.779Z" fill="#407BFF"/>
<path opacity="0.5" d="M185.779 139.312C185.745 139.312 185.72 139.287 185.715 139.258C185.676 138.918 182.053 105.229 181.372 95.0211C180.633 83.9376 179.145 59.368 179.13 59.12C179.13 59.0859 179.155 59.0567 179.189 59.0519C179.223 59.0519 179.247 59.0762 179.252 59.1102C179.267 59.3583 180.755 83.9279 181.494 95.0114C182.175 105.22 185.798 138.908 185.837 139.243C185.837 139.278 185.817 139.307 185.783 139.312H185.779Z" fill="black"/>
<path d="M171.67 10.1704C171.68 10.4671 171.529 10.72 171.334 10.7346C171.14 10.7491 170.979 10.5254 170.975 10.2288C170.965 9.9321 171.116 9.67921 171.31 9.66462C171.505 9.65003 171.665 9.87374 171.67 10.1704Z" fill="#263238"/>
<path d="M168.344 10.4476C168.353 10.7443 168.202 10.9972 168.008 11.0118C167.813 11.0264 167.653 10.8026 167.648 10.506C167.643 10.2093 167.789 9.95643 167.984 9.94184C168.178 9.92725 168.339 10.151 168.344 10.4476Z" fill="#263238"/>
<path d="M169.404 10.506C169.404 10.506 168.776 12.2665 168.062 13.1516C168.596 13.5942 169.472 13.2975 169.472 13.2975L169.404 10.5011V10.506Z" fill="#DE5753"/>
<path d="M169.827 14.5134C169.778 14.5134 169.739 14.4794 169.739 14.4356C169.739 14.387 169.778 14.3432 169.822 14.3432C171.116 14.2362 171.694 13.2781 171.699 13.2684C171.723 13.2246 171.777 13.2101 171.816 13.2344C171.855 13.2587 171.869 13.3122 171.845 13.3511C171.821 13.3949 171.208 14.4016 169.822 14.5183L169.827 14.5134Z" fill="#263238"/>
<path d="M172.721 8.27857C172.667 8.27857 172.614 8.25912 172.58 8.21535C172.108 7.62689 171.461 7.68525 171.451 7.68525C171.359 7.69984 171.271 7.62689 171.262 7.53448C171.257 7.44208 171.33 7.3594 171.427 7.34481C171.461 7.34481 172.278 7.267 172.862 7.9965C172.92 8.06945 172.906 8.17644 172.828 8.2348C172.794 8.25912 172.76 8.27371 172.721 8.27371V8.27857Z" fill="#263238"/>
<path d="M166.904 8.77947C166.88 8.77947 166.855 8.76488 166.836 8.74543C166.763 8.68707 166.753 8.58008 166.817 8.50226C167.434 7.72899 168.227 7.77276 168.261 7.77763C168.353 7.77763 168.421 7.86517 168.412 7.96243C168.402 8.0597 168.314 8.13265 168.222 8.12292C168.198 8.12292 167.575 8.09374 167.084 8.71139C167.04 8.76488 166.972 8.7892 166.909 8.77947H166.904Z" fill="#263238"/>
<path d="M185.895 28.0335L180.838 26.6864C180.838 26.6864 175.877 38.8982 174.126 39.6958C171.743 40.7804 165.703 44.5349 163.14 46.344C162.999 46.9471 163.111 48.5617 163.432 48.9994C167.794 48.2067 176.188 44.9774 177.939 43.3385C181.932 39.5986 185.9 28.0335 185.9 28.0335H185.895Z" fill="#E4897B"/>
<path d="M187.213 26.6329C188.551 30.9466 183.342 36.8361 183.342 36.8361L176.12 33.889C176.12 33.889 177.137 30.757 179.072 26.5599C181.27 21.789 185.861 22.2802 187.209 26.6329H187.213Z" fill="#407BFF"/>
<path opacity="0.6" d="M187.213 26.6329C188.551 30.9466 183.342 36.8361 183.342 36.8361L176.12 33.889C176.12 33.889 177.137 30.757 179.072 26.5599C181.27 21.789 185.861 22.2802 187.209 26.6329H187.213Z" fill="#FAFAFA"/>
<path d="M182.364 148.44C182.087 148.44 181.83 148.391 181.669 148.255C181.543 148.143 181.494 147.993 181.518 147.798C181.538 147.652 181.616 147.584 181.679 147.555C182.092 147.346 183.235 148.07 183.361 148.158C183.391 148.177 183.405 148.211 183.396 148.246C183.386 148.28 183.361 148.309 183.327 148.314C183.07 148.377 182.7 148.445 182.36 148.445L182.364 148.44ZM181.864 147.681C181.82 147.681 181.781 147.686 181.752 147.701C181.727 147.715 181.698 147.735 181.693 147.803C181.679 147.939 181.708 148.046 181.791 148.119C181.98 148.289 182.457 148.309 183.084 148.187C182.685 147.949 182.146 147.681 181.864 147.681Z" fill="#407BFF"/>
<path d="M183.308 148.314C183.308 148.314 183.279 148.314 183.269 148.304C182.904 148.1 182.219 147.297 182.316 146.889C182.335 146.816 182.394 146.684 182.603 146.66C182.739 146.646 182.861 146.68 182.968 146.772C183.371 147.117 183.401 148.177 183.401 148.221C183.401 148.255 183.386 148.284 183.357 148.299C183.342 148.309 183.328 148.314 183.308 148.314ZM182.656 146.83C182.656 146.83 182.632 146.83 182.618 146.83C182.506 146.845 182.491 146.898 182.486 146.918C182.428 147.161 182.856 147.764 183.216 148.051C183.191 147.74 183.109 147.127 182.851 146.903C182.793 146.855 182.729 146.825 182.656 146.825V146.83Z" fill="#407BFF"/>
<path d="M169.448 147.837C169.088 147.925 168.747 147.949 168.529 147.832C168.392 147.759 168.31 147.633 168.29 147.463C168.28 147.36 168.315 147.273 168.387 147.205C168.781 146.855 170.367 147.229 170.547 147.273C170.581 147.283 170.605 147.312 170.61 147.351C170.61 147.39 170.591 147.424 170.557 147.438C170.26 147.574 169.842 147.745 169.448 147.842V147.837ZM168.655 147.258C168.587 147.273 168.538 147.297 168.499 147.326C168.47 147.356 168.456 147.385 168.46 147.429C168.475 147.545 168.524 147.623 168.616 147.677C168.874 147.818 169.472 147.706 170.245 147.385C169.701 147.273 168.995 147.176 168.65 147.258H168.655Z" fill="#407BFF"/>
<path d="M170.542 147.438C170.542 147.438 170.517 147.438 170.508 147.438C170.036 147.351 169.029 146.791 169.02 146.373C169.02 146.276 169.063 146.14 169.292 146.062C169.457 145.999 169.632 146.013 169.793 146.091C170.323 146.354 170.595 147.287 170.61 147.326C170.62 147.356 170.61 147.39 170.59 147.409C170.576 147.424 170.561 147.433 170.542 147.438ZM169.394 146.208C169.394 146.208 169.36 146.218 169.345 146.222C169.195 146.276 169.195 146.339 169.195 146.359C169.199 146.611 169.9 147.073 170.391 147.229C170.294 146.962 170.055 146.417 169.71 146.247C169.608 146.193 169.501 146.183 169.394 146.208Z" fill="#407BFF"/>
<path d="M124.505 52.3649C125.352 49.9381 127.715 48.2164 130.205 48.2164H179.476C182.428 48.2164 184.543 50.6092 184.193 53.5661L173.231 146.616C172.881 149.568 170.206 151.966 167.254 151.966H43.7155C40.7635 151.966 38.6479 149.573 38.9981 146.616L48.3309 67.4072C48.681 64.4551 51.3559 62.0575 54.3079 62.0575H111.194C117.016 62.0575 122.536 58.0404 124.51 52.3649H124.505Z" fill="#407BFF"/>
<path opacity="0.1" d="M124.505 52.3649C125.352 49.9381 127.715 48.2164 130.205 48.2164H179.476C182.428 48.2164 184.543 50.6092 184.193 53.5661L173.231 146.616C172.881 149.568 170.206 151.966 167.254 151.966H43.7155C40.7635 151.966 38.6479 149.573 38.9981 146.616L48.3309 67.4072C48.681 64.4551 51.3559 62.0575 54.3079 62.0575H111.194C117.016 62.0575 122.536 58.0404 124.51 52.3649H124.505Z" fill="#FAFAFA"/>
<path d="M117.687 64.4843L80.4679 11.1626L13.9666 57.5735L51.1808 110.905L117.687 64.4843Z" fill="#407BFF"/>
<path opacity="0.8" d="M117.687 64.4843L80.4679 11.1626L13.9666 57.5735L51.1808 110.905L117.687 64.4843Z" fill="#FAFAFA"/>
<path d="M117.614 65.6174L80.2928 12.145L13.7915 58.5559L51.1128 112.033L117.614 65.6174Z" fill="#FAFAFA"/>
<path d="M78.9489 20.4417L22.0374 60.1584L52.2967 103.518L109.208 63.8013L78.9489 20.4417Z" fill="#407BFF"/>
<path opacity="0.8" d="M78.9489 20.4417L22.0374 60.1584L52.2967 103.518L109.208 63.8013L78.9489 20.4417Z" fill="#FAFAFA"/>
<path d="M57.1677 57.7777C60.2364 62.1742 59.1616 68.229 54.7603 71.2978C50.3638 74.3665 44.309 73.2917 41.2402 68.8904C38.1714 64.494 39.2462 58.4391 43.6476 55.3703C48.044 52.3016 54.0989 53.3764 57.1677 57.7777Z" fill="#407BFF"/>
<path opacity="0.1" d="M57.1677 57.7777C60.2364 62.1742 59.1616 68.229 54.7603 71.2978C50.3638 74.3665 44.309 73.2917 41.2402 68.8904C38.1714 64.494 39.2462 58.4391 43.6476 55.3703C48.044 52.3016 54.0989 53.3764 57.1677 57.7777Z" fill="#FAFAFA"/>
<path d="M93.4724 53.4833C90.4669 50.4729 86.2941 49.0528 82.1992 49.4371C82.1992 49.4371 82.1992 49.4371 82.1943 49.4371C82.1311 49.3446 82.0825 49.2474 82.0193 49.1598C77.5547 42.7645 68.7521 41.1986 62.3568 45.6631C57.3816 49.1355 55.3438 55.2293 56.7785 60.7735C56.3603 60.9729 55.9469 61.2015 55.553 61.4738C52.635 63.5067 51.4094 67.0521 52.1681 70.3154C50.461 71.006 48.8707 72.1343 47.6452 74.0066C45.4178 77.411 45.2816 81.8901 47.5382 85.275C50.6896 89.9973 57.0898 91.1937 61.7245 87.9596C61.7245 87.9596 61.7294 87.9596 61.7343 87.9547L78.0945 76.5356L93.0882 66.0697C96.5169 63.6769 97.5236 58.9303 95.1503 55.4822C95.1357 55.4579 95.1162 55.4384 95.1016 55.4141C94.6104 54.7089 94.0657 54.0669 93.4773 53.4833H93.4724Z" fill="#407BFF"/>
<path opacity="0.3" d="M93.4724 53.4833C90.4669 50.4729 86.2941 49.0528 82.1992 49.4371C82.1992 49.4371 82.1992 49.4371 82.1943 49.4371C82.1311 49.3446 82.0825 49.2474 82.0193 49.1598C77.5547 42.7645 68.7521 41.1986 62.3568 45.6631C57.3816 49.1355 55.3438 55.2293 56.7785 60.7735C56.3603 60.9729 55.9469 61.2015 55.553 61.4738C52.635 63.5067 51.4094 67.0521 52.1681 70.3154C50.461 71.006 48.8707 72.1343 47.6452 74.0066C45.4178 77.411 45.2816 81.8901 47.5382 85.275C50.6896 89.9973 57.0898 91.1937 61.7245 87.9596C61.7245 87.9596 61.7294 87.9596 61.7343 87.9547L78.0945 76.5356L93.0882 66.0697C96.5169 63.6769 97.5236 58.9303 95.1503 55.4822C95.1357 55.4579 95.1162 55.4384 95.1016 55.4141C94.6104 54.7089 94.0657 54.0669 93.4773 53.4833H93.4724Z" fill="black"/>
<g style="mix-blend-mode:multiply">
<path d="M82.3646 86.6173L82.3063 22.4698L1.2052 22.5428L1.26356 86.6173H82.3646Z" fill="#407BFF"/>
</g>
<path opacity="0.8" d="M82.3646 86.6173L82.3063 22.4698L1.2052 22.5428L1.26356 86.6173H82.3646Z" fill="#FAFAFA"/>
<path d="M81.6594 87.5024L81.6011 23.175L0.5 23.2529L0.55836 87.5024H81.6594Z" fill="#FAFAFA"/>
<path d="M75.7796 29.2445H6.37976V82.1187H75.7796V29.2445Z" fill="#407BFF"/>
<path opacity="0.8" d="M75.7796 29.2445H6.37976V82.1187H75.7796V29.2445Z" fill="#FAFAFA"/>
<path d="M33.6938 54.2749C37.4847 50.484 37.4847 44.3378 33.6938 40.5468C29.9029 36.7559 23.7566 36.7559 19.9657 40.5468C16.1748 44.3378 16.1748 50.484 19.9657 54.2749C23.7566 58.0658 29.9029 58.0658 33.6938 54.2749Z" fill="#407BFF"/>
<path opacity="0.1" d="M33.6938 54.2749C37.4847 50.484 37.4847 44.3378 33.6938 40.5468C29.9029 36.7559 23.7566 36.7559 19.9657 40.5468C16.1748 44.3378 16.1748 50.484 19.9657 54.2749C23.7566 58.0658 29.9029 58.0658 33.6938 54.2749Z" fill="#FAFAFA"/>
<path d="M68.7862 64.6301C68.0372 60.4428 65.4305 56.8926 61.8511 54.8646C61.8511 54.8646 61.8511 54.8646 61.8462 54.8646C61.8462 54.7527 61.8608 54.6457 61.8608 54.5339C61.8559 46.7331 55.5239 40.4156 47.7231 40.4253C41.6585 40.4302 36.5033 44.2673 34.5094 49.6365C34.0522 49.5587 33.5853 49.51 33.1039 49.51C29.5488 49.51 26.514 51.718 25.2739 54.8305C23.4793 54.422 21.5291 54.4366 19.4525 55.2731C15.6785 56.7953 13.0037 60.3893 12.921 64.4599C12.8043 70.1354 17.3758 74.7751 23.027 74.7702C23.027 74.7702 23.0319 74.7702 23.0368 74.7702L42.991 74.7508L61.2723 74.7362C65.4548 74.7362 68.9953 71.4096 69.0148 67.2272C69.0148 67.198 69.0148 67.1737 69.0148 67.1445C69.0148 66.2885 68.937 65.4472 68.7862 64.635V64.6301Z" fill="#407BFF"/>
<path opacity="0.3" d="M68.7862 64.6301C68.0372 60.4428 65.4305 56.8926 61.8511 54.8646C61.8511 54.8646 61.8511 54.8646 61.8462 54.8646C61.8462 54.7527 61.8608 54.6457 61.8608 54.5339C61.8559 46.7331 55.5239 40.4156 47.7231 40.4253C41.6585 40.4302 36.5033 44.2673 34.5094 49.6365C34.0522 49.5587 33.5853 49.51 33.1039 49.51C29.5488 49.51 26.514 51.718 25.2739 54.8305C23.4793 54.422 21.5291 54.4366 19.4525 55.2731C15.6785 56.7953 13.0037 60.3893 12.921 64.4599C12.8043 70.1354 17.3758 74.7751 23.027 74.7702C23.027 74.7702 23.0319 74.7702 23.0368 74.7702L42.991 74.7508L61.2723 74.7362C65.4548 74.7362 68.9953 71.4096 69.0148 67.2272C69.0148 67.198 69.0148 67.1737 69.0148 67.1445C69.0148 66.2885 68.937 65.4472 68.7862 64.635V64.6301Z" fill="black"/>
<g style="mix-blend-mode:multiply">
<path d="M150.743 95.8188L143.526 30.3436L62.9163 39.229L70.1189 104.568L150.743 95.8188Z" fill="#407BFF"/>
</g>
<path opacity="0.8" d="M150.743 95.8188L143.526 30.3436L62.9163 39.229L70.1189 104.568L150.743 95.8188Z" fill="#FAFAFA"/>
<path d="M150.116 96.5531L142.904 31.1217L62.2888 40.007L69.4914 105.307L150.116 96.5531Z" fill="#FAFAFA"/>
<path d="M137.751 37.756L68.7693 45.3595L74.5622 97.9154L143.544 90.3119L137.751 37.756Z" fill="#407BFF"/>
<path opacity="0.8" d="M137.751 37.756L68.7693 45.3595L74.5622 97.9154L143.544 90.3119L137.751 37.756Z" fill="#FAFAFA"/>
<path d="M143.331 88.3924L143.541 90.3134L107.708 94.2625L116.257 84.1127L125.011 73.7148L143.331 88.3924Z" fill="#407BFF"/>
<path opacity="0.3" d="M143.331 88.3924L143.541 90.3134L107.708 94.2625L116.257 84.1127L125.011 73.7148L143.331 88.3924Z" fill="black"/>
<path d="M128.027 92.0254L74.5589 97.9197L74.0969 93.6935L95.0676 69.8826L116.257 84.1127L128.027 92.0254Z" fill="#407BFF"/>
<path opacity="0.3" d="M128.027 92.0254L74.5589 97.9197L74.0969 93.6935L95.0676 69.8826L116.257 84.1127L128.027 92.0254Z" fill="black"/>
<path d="M118.624 63.134C122.041 60.1499 122.392 54.9609 119.408 51.5438C116.424 48.1268 111.235 47.7758 107.818 50.7598C104.401 53.7438 104.05 58.9329 107.034 62.3499C110.018 65.7669 115.207 66.118 118.624 63.134Z" fill="#407BFF"/>
<path opacity="0.1" d="M118.624 63.134C122.041 60.1499 122.392 54.9609 119.408 51.5438C116.424 48.1268 111.235 47.7758 107.818 50.7598C104.401 53.7438 104.05 58.9329 107.034 62.3499C110.018 65.7669 115.207 66.118 118.624 63.134Z" fill="#FAFAFA"/>
<g style="mix-blend-mode:multiply" opacity="0.7">
<path d="M103.52 71.789C103.851 69.6929 105.85 68.2096 108.345 68.2096H157.615C160.567 68.2096 163.188 70.2765 163.466 72.8249L170.065 147.351C170.342 149.899 168.173 151.966 165.217 151.966H41.6779C38.7259 151.966 36.1045 149.899 35.8273 147.351L30.5214 84.7644C30.2442 82.216 32.4133 80.1491 35.3702 80.1491H92.2567C98.0781 80.1491 102.747 76.6815 103.52 71.789Z" fill="#407BFF"/>
</g>
<path d="M163.548 46.057L159.667 47.3896L157.197 49.1306L161.632 50.8523C161.632 50.8523 165.776 50.4146 166.768 48.1677L163.548 46.057Z" fill="#E4897B"/>
</svg>
