<svg width="200" height="159" viewBox="0 0 200 159" fill="none" xmlns="http://www.w3.org/2000/svg">
<g clip-path="url(#clip0_46_392)">
<path d="M141.579 84.9067C157.207 100.793 151.937 115.058 141.378 136.669C141.033 137.363 140.706 138.062 140.361 138.756H166.386C174.499 120.656 174.067 93.6575 150.635 69.8332C137.675 56.6503 136.728 50.5021 136.671 49.6463C137.291 48.642 140.107 47.0918 142.631 46.6857C146.644 46.022 149.522 41.2667 149.015 36.0268C148.509 30.7868 144.876 27.049 140.832 27.6298C139.273 27.8568 125.457 30.2978 122.44 44.3889C119.117 59.886 131.78 74.929 141.579 84.9067Z" fill="#EBEBEB"/>
<path d="M94.4937 64.0474L140.448 69.3266C144.339 69.772 148.116 67.6367 150.212 63.8028C152.5 59.624 154.373 54.3142 151.552 51.1877C149.282 48.6769 148.02 45.2098 148.251 41.5767C149.085 28.2935 143.649 11.7134 126.401 10.2899C116.646 9.48207 113.213 16.3115 112.305 23.7391C111.458 30.6777 105.786 35.3368 99.8821 33.9002C94.6858 32.6339 90.0615 34.1186 90.4371 43.6858C90.6205 48.3494 88.4503 52.7335 84.8784 54.8687C79.7432 57.9428 76.8874 63.0518 94.4937 64.043V64.0474Z" fill="#E0E0E0"/>
<path d="M59.7266 137.913C60.1152 138.21 60.5082 138.485 60.9055 138.752H145.963C153.517 135.385 157.312 132.202 152.203 130.324C147.648 128.643 143.356 124.752 141.072 120.119C138.173 114.237 129.444 113.469 121.606 114.115C114.951 114.665 107.03 109.255 103.773 101.753C100.306 93.771 93.5504 85.6316 80.4418 86.0508C59.5606 86.7145 52.8972 101.037 56.98 116.809C58.2419 121.682 57.1241 126.128 53.8709 128.298C50.8711 130.307 55.5302 134.721 59.7222 137.918L59.7266 137.913Z" fill="#FAFAFA"/>
<path d="M2.1003 138.11C2.2706 138.337 2.44963 138.551 2.64176 138.752H67.9708C75.2368 136.167 79.538 133.721 76.4333 132.276C73.6648 130.983 72.0623 127.997 72.3287 124.438C72.6605 119.923 66.294 119.329 59.9886 119.827C54.6395 120.25 50.906 116.093 51.6702 110.329C52.4824 104.198 50.8362 97.9455 40.5833 98.2686C24.2565 98.7795 12.9033 109.779 9.17859 121.892C8.0258 125.634 5.23553 129.049 1.79027 130.717C-1.38863 132.258 0.270685 135.647 2.1003 138.105V138.11Z" fill="#E6E6E6"/>
<path d="M117.17 88.4742L189.699 70.7414C193.481 70.3047 196.891 67.7415 198.9 63.353C200.428 60.0213 200.865 56.3359 196.943 54.4495C192.433 52.2793 189.14 48.0175 187.577 43.009C183.857 31.1012 170.993 19.0013 146.347 21.4509C133.575 22.7216 129.208 28.1057 128.575 34.1098C127.619 43.1531 120.597 49.8384 112.065 49.9257C104.926 49.9999 99.1136 51.9736 100 58.4799C100.865 64.829 98.1442 70.9946 93.258 74.5971C88.0791 78.4179 92.9828 91.2732 117.174 88.4742H117.17Z" fill="#F5F5F5"/>
<path d="M80.867 21.7976C86.5151 19.458 89.1972 12.9828 86.8577 7.33472C84.5182 1.68662 78.043 -0.995511 72.3949 1.34401C66.7468 3.68352 64.0646 10.1588 66.4042 15.8069C68.7437 21.455 75.2189 24.1371 80.867 21.7976Z" fill="#F0F0F0"/>
<path d="M72.761 8.42979C77.7258 5.25089 76.6866 2.22046 66.2984 2.82305C55.9102 3.42564 54.2116 8.15906 54.2116 8.15906C54.2116 8.15906 38.4699 7.58267 39.7974 10.9362C30.8327 11.7222 28.3874 12.5039 34.5487 12.9099L79.6035 9.78781C79.6035 9.78781 81.2235 7.73113 72.7566 8.42979H72.761Z" fill="#FAFAFA"/>
<path d="M19.9249 40.7122L44.474 39.0092C44.474 39.0092 53.9671 35.6993 47.9935 35.7736C52.5435 33.1929 55.6264 29.1319 46.177 29.6996C36.7276 30.2673 33.6579 35.7867 33.6579 35.7867C33.6579 35.7867 24.4269 32.8785 20.9991 38.7603C18.7677 38.9132 7.95161 41.5462 19.9249 40.7166V40.7122Z" fill="#F5F5F5"/>
<path d="M150.574 10.552L168.517 9.30749C168.517 9.30749 175.455 6.88838 171.089 6.94078C174.412 5.0544 176.665 2.08947 169.761 2.49993C162.858 2.91476 160.613 6.94515 160.613 6.94515C160.613 6.94515 153.867 4.8186 151.36 9.11973C149.727 9.23326 141.828 11.1546 150.574 10.5476V10.552Z" fill="#F5F5F5"/>
<path d="M99.7336 158.471C146.493 158.471 184.398 156.258 184.398 153.528C184.398 150.798 146.493 148.585 99.7336 148.585C52.9748 148.585 15.0692 150.798 15.0692 153.528C15.0692 156.258 52.9748 158.471 99.7336 158.471Z" fill="#F5F5F5"/>
<path d="M128.562 47.8342L127.968 45.6858L124.693 48.4411C124.693 48.4411 125.44 49.0088 126.689 49.7249C127.204 50.0218 127.863 49.8428 128.165 49.3319L128.431 48.8822C128.619 48.5634 128.667 48.1879 128.571 47.8298L128.562 47.8342Z" fill="#B55B52"/>
<path d="M124.925 43.3627L123.431 46.4804L124.689 48.4454L127.968 45.6901L124.925 43.3627Z" fill="#B55B52"/>
<path d="M129.988 38.8555L121.466 37.7532C120.49 37.627 119.596 38.3157 119.47 39.2915L118.814 44.3669C118.688 45.3427 119.376 46.2361 120.352 46.3623L128.875 47.4647C129.85 47.5909 130.744 46.9021 130.87 45.9263L131.526 40.8509C131.653 39.8751 130.964 38.9818 129.988 38.8555Z" fill="#263238"/>
<path d="M136.16 63.1348C134.156 63.1348 130.457 61.4405 125.693 57.5411C120.506 53.2924 120.995 49.9563 121.353 47.5154C121.484 46.6202 121.597 45.8473 121.418 45.1836L121.877 45.057C122.086 45.8124 121.964 46.6333 121.824 47.5809C121.462 50.0349 121.012 53.0915 125.994 57.17C132.348 62.3706 136.361 63.3138 137.182 62.3226C137.71 61.685 136.976 59.9166 134.121 57.5368C130.92 54.8731 130.763 50.7991 130.649 47.821C130.606 46.7294 130.571 45.7862 130.383 45.1923L130.837 45.0482C131.047 45.7032 131.086 46.677 131.125 47.8036C131.239 50.6899 131.392 54.6461 134.426 57.17C137.212 59.4886 138.409 61.5802 137.548 62.6239C137.273 62.9557 136.806 63.1304 136.16 63.1304V63.1348Z" fill="#263238"/>
<path d="M128.374 40.4851L125.903 39.6685C125.623 39.5768 125.422 39.2624 125.457 38.9742L125.654 37.4634C125.693 37.1752 125.951 37.0136 126.235 37.1097L128.706 37.9262C128.986 38.0179 129.186 38.3323 129.151 38.6205L128.955 40.1314C128.916 40.4196 128.658 40.5812 128.374 40.4851Z" fill="#263238"/>
<path d="M127.401 37.8215L125.977 37.3499C125.815 37.2975 125.698 37.1141 125.719 36.9482L125.833 36.0748C125.855 35.9089 126.003 35.8172 126.169 35.8696L127.593 36.3412C127.754 36.3936 127.872 36.577 127.85 36.7429L127.737 37.6162C127.715 37.7822 127.566 37.8739 127.401 37.8215Z" fill="#263238"/>
<path d="M110.269 36.8885L106.255 36.3693C105.592 36.2836 104.986 36.7512 104.9 37.4137L104.246 42.4718C104.16 43.1343 104.628 43.7408 105.29 43.8265L109.305 44.3457C109.967 44.4314 110.574 43.9638 110.66 43.3013L111.314 38.2432C111.399 37.5807 110.932 36.9742 110.269 36.8885Z" fill="black"/>
<path d="M114.244 38.1383L109.87 37.5726C108.75 37.4278 107.726 38.2178 107.581 39.3371L107.327 41.3032C107.182 42.4225 107.972 43.4473 109.091 43.592L113.465 44.1578C114.584 44.3025 115.609 43.5125 115.754 42.3932L116.008 40.4271C116.153 39.3078 115.363 38.2831 114.244 38.1383Z" fill="#263238"/>
<path d="M109.091 43.7077C109.091 43.7077 109.083 43.7077 109.074 43.7077C108.502 43.6335 107.995 43.3409 107.642 42.8824C107.288 42.4239 107.135 41.8563 107.209 41.2842L107.463 39.3193C107.615 38.1359 108.703 37.3019 109.886 37.4503C109.951 37.4591 109.995 37.5202 109.986 37.5857C109.978 37.6512 109.921 37.6949 109.851 37.6905C108.803 37.5508 107.834 38.3018 107.694 39.3542L107.441 41.3192C107.375 41.8257 107.511 42.3322 107.829 42.7383C108.144 43.1488 108.598 43.4064 109.104 43.4719C109.17 43.4806 109.214 43.5418 109.205 43.6073C109.196 43.6684 109.148 43.7121 109.087 43.7121L109.091 43.7077Z" fill="white"/>
<path d="M116.474 38.276L113.075 37.8363C112.515 37.7639 112.003 38.1589 111.931 38.7185L111.377 43.0015C111.304 43.5611 111.699 44.0735 112.259 44.1459L115.658 44.5856C116.218 44.658 116.73 44.263 116.803 43.7033L117.357 39.4204C117.429 38.8607 117.034 38.3484 116.474 38.276Z" fill="#263238"/>
<path d="M117.28 38.3825L113.88 37.9428C113.321 37.8705 112.808 38.2655 112.736 38.8251L112.182 43.108C112.11 43.6677 112.505 44.1801 113.064 44.2524L116.464 44.6922C117.023 44.7645 117.536 44.3695 117.608 43.8099L118.162 39.527C118.234 38.9673 117.839 38.4549 117.28 38.3825Z" fill="black"/>
<path d="M120.642 39.4354L116.944 38.957C115.996 38.8345 115.129 39.503 115.007 40.4501L114.792 42.1131C114.669 43.0602 115.338 43.9273 116.285 44.0498L119.983 44.5281C120.93 44.6506 121.797 43.9821 121.92 43.035L122.135 41.3721C122.257 40.425 121.589 39.5579 120.642 39.4354Z" fill="#263238"/>
<path d="M116.283 44.1662C116.283 44.1662 116.274 44.1662 116.266 44.1662C115.257 44.0352 114.541 43.1051 114.672 42.0964L114.886 40.4327C114.947 39.9436 115.2 39.5114 115.593 39.2101C115.986 38.9088 116.467 38.7778 116.956 38.8389C117.021 38.8476 117.065 38.9088 117.056 38.9743C117.047 39.0398 116.986 39.0834 116.921 39.0791C116.497 39.0223 116.074 39.1402 115.733 39.4022C115.392 39.6642 115.174 40.0441 115.117 40.4676L114.903 42.1313C114.79 43.0134 115.414 43.8212 116.292 43.9347C116.357 43.9435 116.401 44.0046 116.392 44.0701C116.384 44.1312 116.336 44.1749 116.274 44.1749L116.283 44.1662Z" fill="white"/>
<path opacity="0.6" d="M129.748 39.8674L127.643 39.5952C127.404 39.5643 127.185 39.7331 127.154 39.9722L126.992 41.2281C126.961 41.4673 127.13 41.6862 127.369 41.7172L129.473 41.9894C129.713 42.0203 129.932 41.8515 129.963 41.6123L130.125 40.3565C130.156 40.1173 129.987 39.8984 129.748 39.8674Z" fill="#407BFF"/>
<path d="M122.029 37.8216L121.466 37.7488C120.49 37.6226 119.597 38.3113 119.471 39.2871L118.814 44.3625C118.688 45.3383 119.377 46.2317 120.352 46.3579L120.915 46.4307C121.891 46.557 122.785 45.8682 122.911 44.8924L123.567 39.817C123.693 38.8412 123.005 37.9478 122.029 37.8216Z" fill="black"/>
<path d="M127.828 54.1832H127.811H127.763H127.706C127.671 54.1832 127.479 54.192 127.374 54.2094C122.217 57.6634 128.064 60.2528 127.038 59.3795C127.095 59.397 127.156 59.4101 127.213 59.4232L127.283 59.4363C127.283 59.4363 127.309 59.4363 127.304 59.4363L127.23 59.4276L127.003 59.4014L126.527 59.3446C126.208 59.3053 125.885 59.2573 125.567 59.2136C124.925 59.1175 124.287 59.0171 123.645 58.9036C122.366 58.6896 121.091 58.4101 119.811 58.1001C117.257 57.4407 114.711 56.6766 112.148 55.2269C111.51 54.8513 110.868 54.4234 110.235 53.8688C110.078 53.7335 109.921 53.585 109.768 53.4278L109.537 53.1877L109.48 53.1265L109.366 52.9955C109.227 52.8252 109.1 52.6418 109.008 52.4497C108.807 52.0611 108.733 51.6986 108.698 51.3799C108.681 51.2227 108.685 51.096 108.685 50.9519C108.69 50.8253 108.703 50.7161 108.716 50.5982C108.777 50.1747 108.882 49.8821 108.982 49.6245C109.192 49.118 109.41 48.7643 109.628 48.428C109.847 48.0962 110.069 47.7992 110.288 47.5198C110.729 46.9565 111.187 46.4587 111.65 45.9784C113.502 44.0701 115.453 42.4458 117.554 40.9305L119.348 42.8475C117.825 44.7863 116.248 46.7425 114.868 48.6682C114.528 49.1485 114.209 49.6332 113.925 50.0961C113.785 50.3275 113.659 50.5546 113.558 50.7598C113.458 50.965 113.384 51.1659 113.375 51.2445C113.371 51.2794 113.384 51.2882 113.405 51.179C113.414 51.1397 113.419 51.1091 113.419 51.0611C113.423 50.9956 113.419 50.9519 113.419 50.869C113.405 50.7074 113.362 50.5022 113.24 50.2489C113.178 50.131 113.104 50.0087 113.008 49.8996C112.938 49.821 112.969 49.8559 112.973 49.8603L112.995 49.8821L113.095 49.9738C113.165 50.035 113.244 50.0961 113.327 50.1572C113.659 50.4061 114.082 50.655 114.536 50.8821C115.453 51.3449 116.519 51.7379 117.619 52.0742C118.72 52.4148 119.868 52.703 121.03 52.9606C122.191 53.2226 123.374 53.4409 124.562 53.6549C125.156 53.7597 125.754 53.8557 126.353 53.9474L127.252 54.0828L127.706 54.1527L127.946 54.1876L128.104 54.2138L128.182 54.2269L128.278 54.2444C128.344 54.2575 128.405 54.2749 128.466 54.2924C127.44 53.4191 133.3 56.0129 128.13 59.4669C128.021 59.4843 127.824 59.4974 127.785 59.4931H127.711H127.632H127.558L127.824 54.2007L127.828 54.1832Z" fill="#B55B52"/>
<path d="M119.514 38.3324H121.108L120.554 40.5069L117.536 39.424L118.06 38.9175C118.449 38.542 118.973 38.328 119.514 38.328V38.3324Z" fill="#B55B52"/>
<path d="M116.785 42.3934L117.536 39.4241L120.554 40.507C120.554 40.507 120.532 44.0833 118.209 43.8999L116.79 42.3934H116.785Z" fill="#B55B52"/>
<path d="M141.313 60.9122C141.051 61.0083 140.95 61.0388 140.789 61.0869C140.636 61.1349 140.505 61.1655 140.361 61.2091C140.081 61.279 139.806 61.3401 139.54 61.3882C138.998 61.493 138.465 61.5497 137.933 61.6021C136.872 61.6851 135.824 61.672 134.793 61.5803C133.758 61.5017 132.745 61.3227 131.758 61.0956C131.261 60.9864 130.772 60.8511 130.291 60.6982L129.929 60.5891L129.719 60.5236C129.601 60.4843 129.483 60.4493 129.374 60.4013C128.92 60.2223 128.518 59.9734 128.182 59.7026C127.505 59.1568 127.095 58.5455 126.78 57.9866C126.466 57.4189 126.252 56.8731 126.077 56.3403C125.754 55.2749 125.571 54.2662 125.475 53.2662C125.274 51.2707 125.318 49.3756 125.571 47.4237H128.195C128.496 49.1442 128.846 50.9301 129.309 52.5458C129.553 53.3492 129.811 54.1352 130.138 54.7815C130.296 55.1046 130.466 55.4015 130.632 55.6111C130.793 55.8295 130.964 55.9517 131.02 55.9648C131.051 55.9735 131.051 55.9561 131.029 55.9343C131.025 55.9343 131.016 55.9212 131.012 55.9212C130.994 55.9212 131.038 55.9212 131.06 55.9299L131.138 55.943L131.444 55.9954L132.055 56.1002L132.667 56.1788C133.073 56.2486 133.479 56.2661 133.885 56.3098C134.291 56.3229 134.693 56.3665 135.094 56.3665C135.894 56.3796 136.688 56.3665 137.457 56.2792C137.837 56.2399 138.221 56.1919 138.579 56.1264C138.762 56.0958 138.937 56.0609 139.107 56.026L139.343 55.9736C139.404 55.9605 139.522 55.9255 139.474 55.943L141.308 60.9122H141.313Z" fill="#B55B52"/>
<path d="M138.369 43.9086C137.575 47.4499 137.378 50.0873 138.099 52.882C138.099 52.882 137.3 55.4757 132.549 55.4757C127.326 55.4757 130.151 52.882 130.151 52.882C133.029 52.2008 133.038 50.0873 132.614 48.1005L138.365 43.9086H138.369Z" fill="#B55B52"/>
<path d="M139.046 54.4846C139.452 53.6636 139.902 52.7248 139.059 52.4322C138.134 52.1091 133.012 51.7773 131.217 52.3842C129.422 52.9912 129.859 54.6549 129.859 54.6549L139.042 54.4846H139.046Z" fill="#263238"/>
<path d="M163.412 149.144C163.718 148.97 164.015 148.716 164.211 148.528C164.237 148.502 164.246 148.463 164.233 148.432C164.22 148.397 164.189 148.376 164.15 148.376C163.984 148.367 162.543 148.323 162.281 148.721C162.242 148.782 162.207 148.882 162.272 149.018C162.36 149.201 162.495 149.31 162.67 149.341C162.892 149.38 163.154 149.288 163.403 149.144H163.412ZM163.923 148.55C163.425 148.983 162.98 149.21 162.713 149.162C162.596 149.14 162.508 149.066 162.443 148.939C162.412 148.878 162.425 148.843 162.443 148.817C162.578 148.611 163.347 148.546 163.927 148.55H163.923Z" fill="#407BFF"/>
<path d="M164.198 148.546C164.198 148.546 164.224 148.524 164.233 148.511C164.246 148.48 164.246 148.445 164.229 148.419C164.202 148.38 163.578 147.467 163.01 147.376C162.862 147.349 162.731 147.38 162.617 147.467C162.443 147.598 162.46 147.742 162.486 147.817C162.626 148.227 163.705 148.576 164.154 148.563C164.172 148.563 164.185 148.559 164.198 148.55V148.546ZM162.761 147.585C162.827 147.55 162.897 147.537 162.98 147.55C163.342 147.611 163.766 148.109 163.962 148.367C163.473 148.301 162.74 147.996 162.657 147.751C162.648 147.729 162.63 147.677 162.727 147.607C162.727 147.607 162.748 147.59 162.761 147.585Z" fill="#407BFF"/>
<path d="M168.215 146.913L165.678 148.978L159.626 142.769L162.163 140.699L168.215 146.913Z" fill="#B55B52"/>
<path d="M164.447 148.162L167.674 145.926C167.792 145.843 167.945 145.856 168.045 145.956L169.905 148.371C170.141 148.598 170.106 149 169.835 149.188C168.713 149.974 168.207 150.24 166.709 151.096C165.787 151.62 165.084 153.777 161.927 153.777C160.495 153.777 160.015 152.637 160.604 152.454C163.709 151.506 163.796 149.812 164.089 148.668C164.141 148.463 164.268 148.284 164.438 148.166L164.447 148.162Z" fill="#263238"/>
<path d="M123.811 84.0509H142.505C142.719 81.479 141.727 69.9598 143.889 57.8643C144.317 55.467 142.592 53.2313 140.169 52.9999C139.636 52.9475 139.086 52.9082 138.544 52.882C136.16 52.7684 132.706 52.6898 130.601 52.882C129.427 52.9868 128.274 53.1789 127.339 53.3623C125.82 53.6592 124.401 54.7378 124.174 56.2661C122.768 65.7198 123.82 84.0509 123.82 84.0509" fill="#407BFF"/>
<path d="M127.593 82.2126H122.069C120.833 82.2126 119.934 81.2039 120.069 79.9681L120.711 73.9946C120.842 72.7632 121.96 71.7501 123.196 71.7501H128.719C129.951 71.7501 130.855 72.7588 130.719 73.9946L130.077 79.9681C129.946 81.2039 128.828 82.2126 127.593 82.2126Z" fill="#263238"/>
<path d="M128.719 71.7545L127.593 82.2126C128.828 82.2126 129.946 81.2039 130.077 79.9681L130.719 73.9946C130.85 72.7632 129.951 71.7501 128.719 71.7501V71.7545Z" fill="black"/>
<path d="M130.243 74.0732C130.178 74.0732 130.117 74.047 130.073 73.9902C129.999 73.8985 130.012 73.7588 130.103 73.6846C130.226 73.5841 142.317 63.6632 139.946 53.0479C139.92 52.93 139.994 52.8121 140.112 52.7859C140.23 52.7597 140.348 52.8339 140.374 52.9518C142.806 63.8335 130.505 73.9247 130.379 74.0251C130.339 74.0601 130.291 74.0732 130.243 74.0732Z" fill="#263238"/>
<path d="M128.802 72.1607L122.327 72.1432C122.113 72.1432 121.903 72.1912 121.698 72.2829C121.165 72.6934 120.79 73.3134 120.715 73.999L120.418 76.7718C120.589 76.8941 120.807 76.9683 121.052 76.9683L127.527 76.9814C128.309 76.9814 129.13 76.3002 129.348 75.4662L129.82 73.6846C130.042 72.8462 129.58 72.1607 128.802 72.1607Z" fill="black"/>
<path d="M127.566 76.5971L121.091 76.5797C120.309 76.5797 119.851 75.8941 120.073 75.0557L120.545 73.2742C120.768 72.4401 121.584 71.7546 122.366 71.7589L128.842 71.7764C129.623 71.7764 130.082 72.462 129.859 73.3003L129.387 75.0819C129.165 75.916 128.348 76.6015 127.566 76.5971Z" fill="#263238"/>
<path opacity="0.2" d="M123.815 59.3665C123.654 61.2223 123.553 63.2484 123.497 65.3182C125.58 63.0082 126.999 60.1262 123.815 59.3665Z" fill="black"/>
<path d="M128.191 60.3096C125.711 62.5278 120.658 59.5978 120.658 59.5978L119.152 52.3623C119.152 52.3623 124.746 52.3841 129.121 52.8994C134.007 53.4802 130.981 57.8119 128.191 60.3096Z" fill="#407BFF"/>
<g opacity="0.2">
<path d="M162.168 140.703L159.626 142.769L162.748 145.97L165.285 143.904L162.168 140.703Z" fill="black"/>
</g>
<path d="M127.213 84.0509C127.213 84.0509 133.374 103.832 135.164 113.836C137.125 124.791 160.412 145.446 160.412 145.446L164.753 141.402C164.753 141.402 150.408 122.263 145.605 114.831C144.583 103.059 142.496 84.0509 142.496 84.0509H127.208H127.213Z" fill="#263238"/>
<path d="M158.631 145.048L160.661 146.546L166.128 141.861L164.665 140.228L158.635 145.053L158.631 145.048Z" fill="#407BFF"/>
<path opacity="0.2" d="M130.243 94.247C130.737 95.9631 131.252 97.8014 131.758 99.666C134.518 95.605 134.898 90.6664 134.898 90.6664L130.243 94.247Z" fill="black"/>
<path d="M129.593 40.4327C129.553 40.7122 129.374 40.9218 129.191 40.9043C129.007 40.8869 128.89 40.6423 128.929 40.3629C128.968 40.0834 129.147 39.8738 129.331 39.8913C129.514 39.9087 129.632 40.1533 129.593 40.4327Z" fill="#263238"/>
<path d="M129.396 40.9261C129.396 40.9261 128.531 42.4719 127.719 43.1793C128.152 43.6902 129.025 43.568 129.025 43.568L129.4 40.9305L129.396 40.9261Z" fill="#A02724"/>
<path d="M129.479 38.6119C129.431 38.5944 129.392 38.5551 129.374 38.4983C129.352 38.411 129.405 38.3193 129.492 38.2975C129.523 38.2888 130.274 38.0966 130.937 38.7036C131.003 38.7647 131.012 38.8695 130.946 38.9394C130.885 39.0049 130.78 39.0136 130.71 38.9481C130.178 38.4591 129.579 38.6162 129.571 38.6162C129.536 38.625 129.501 38.625 129.47 38.6162L129.479 38.6119Z" fill="#263238"/>
<path d="M139.029 40.7996C138.33 44.2055 138.099 46.2317 136.108 47.8124C133.116 50.1922 129.09 48.1879 128.754 44.6771C128.453 41.5201 129.641 36.4766 133.204 35.4592C136.715 34.4549 139.723 37.3893 139.029 40.7996Z" fill="#B55B52"/>
<path d="M131.309 42.4414L129.815 42.5724C129.815 42.5724 129.593 40.4327 130.767 39.2145C129.981 39.0704 129.265 37.8302 129.392 36.1185C129.527 34.3107 132.287 31.4637 134.291 33.2889C136.448 35.2539 140.688 35.7124 139.841 36.9089C141.081 36.6774 144.016 40.7733 141.081 42.782C138.147 44.7906 139.142 46.7425 137.745 47.5372C136.348 48.332 131.723 47.511 131.304 42.437L131.309 42.4414Z" fill="#263238"/>
<path d="M139.701 36.9875C139.701 36.9875 140.304 36.4286 139.623 35.2627C140.614 35.7605 140.417 36.791 139.701 36.9875Z" fill="#263238"/>
<path d="M132.959 42.3496C132.767 43.2448 132.226 44.0483 131.641 44.546C130.763 45.2971 130.055 44.6858 130.077 43.6553C130.095 42.7252 130.575 41.2143 131.566 40.8606C132.54 40.5113 133.178 41.3278 132.964 42.354L132.959 42.3496Z" fill="#B55B52"/>
<path d="M98.6419 150.214C98.9956 150.214 99.3755 150.14 99.6419 150.079C99.6768 150.07 99.703 150.039 99.7117 150.004C99.7205 149.969 99.703 149.934 99.6724 149.913C99.5327 149.825 98.3013 149.07 97.8777 149.288C97.8122 149.323 97.7336 149.393 97.7249 149.546C97.7118 149.747 97.7773 149.908 97.9127 150.022C98.0873 150.166 98.3581 150.218 98.6463 150.218L98.6419 150.214ZM99.3799 149.948C98.7336 150.079 98.2314 150.052 98.0262 149.878C97.9345 149.799 97.8952 149.694 97.9039 149.55C97.9083 149.48 97.9389 149.459 97.9607 149.445C98.179 149.332 98.8821 149.659 99.3799 149.948Z" fill="#407BFF"/>
<path d="M99.6201 150.079C99.6201 150.079 99.655 150.074 99.6681 150.065C99.6943 150.048 99.7118 150.017 99.7074 149.983C99.7074 149.934 99.6113 148.834 99.1703 148.472C99.0568 148.376 98.9258 148.336 98.786 148.354C98.5677 148.38 98.5109 148.515 98.4978 148.59C98.4192 149.013 99.179 149.852 99.5764 150.065C99.5895 150.074 99.6026 150.074 99.6201 150.074V150.079ZM98.8515 148.533C98.9258 148.533 98.9956 148.559 99.0611 148.611C99.345 148.843 99.4672 149.485 99.5109 149.808C99.1179 149.511 98.6332 148.878 98.6812 148.624C98.6856 148.603 98.6943 148.546 98.8122 148.533C98.8122 148.533 98.8384 148.533 98.8515 148.533Z" fill="#407BFF"/>
<path d="M103.729 150.065H100.236L100.201 141.974H103.694L103.729 150.065Z" fill="#B55B52"/>
<path d="M100.275 149.533H104.091C104.236 149.533 104.353 149.633 104.38 149.773L104.952 152.878C105.013 153.201 104.755 153.506 104.423 153.498C103.048 153.476 101.061 153.393 99.3318 153.393C97.3101 153.393 97.2097 153.502 94.8386 153.502C93.4063 153.502 93.0614 152.052 93.6683 151.921C96.4237 151.323 97.0088 151.258 99.4235 149.803C99.6855 149.646 99.9737 149.533 100.275 149.533Z" fill="#263238"/>
<path opacity="0.2" d="M100.201 141.979L100.218 146.149H103.716L103.698 141.979H100.201Z" fill="black"/>
<path d="M123.811 84.0509C123.811 84.0509 99.7555 102.679 98.7162 113.281C97.6377 124.311 98.9476 145.21 98.9476 145.21H104.869C104.869 145.21 108.244 123.53 108.925 112.648C121.833 99.9803 135.902 96.3997 139.841 84.0509H123.811Z" fill="#263238"/>
<path d="M97.8996 142.856C97.8734 142.856 98.1398 145.315 98.1398 145.315H105.34L105.62 143.123L97.8996 142.856Z" fill="#407BFF"/>
</g>
<defs>
<clipPath id="clip0_46_392">
<rect width="200" height="157.971" fill="white" transform="translate(0 0.5)"/>
</clipPath>
</defs>
</svg>
