<svg width="80" height="81" viewBox="0 0 80 81" fill="none" xmlns="http://www.w3.org/2000/svg">
<circle cx="40" cy="40.4713" r="40" fill="#F2F5FF"/>
<path d="M57.6953 29.3527L40.7812 19.587C40.2983 19.3073 39.7017 19.3073 39.2188 19.587L22.3047 29.3527C21.8218 29.632 21.5234 30.1481 21.5234 30.7057V50.2369C21.5234 50.7946 21.8218 51.3107 22.3047 51.59L39.2188 61.3556C39.4609 61.4947 39.7295 61.5651 40 61.5651C40.2705 61.5651 40.5391 61.4947 40.7812 61.3556L57.6953 51.59C58.1782 51.3107 58.4766 50.7946 58.4766 50.2369V30.7057C58.4766 30.1481 58.1782 29.632 57.6953 29.3527ZM24.6484 33.4449L38.4375 41.4059V57.2965L24.6484 49.3356V33.4449ZM40 38.6993L26.1826 30.7213L40 22.7448L53.8174 30.7213L40 38.6993ZM55.3516 49.3356L41.5625 57.2965V41.4059L55.3516 33.4449V49.3356Z" fill="#0A1F69"/>
<path d="M78.4375 12.9742C79.2998 12.9742 80 12.274 80 11.4117V2.03381C80 1.17151 79.2998 0.471313 78.4375 0.471313H69.0596C68.1973 0.471313 67.4971 1.17151 67.4971 2.03381V5.16077H12.5029V2.03381C12.5029 1.17151 11.8027 0.471313 10.9404 0.471313H1.5625C0.700195 0.471313 0 1.17151 0 2.03381V11.4117C0 12.274 0.700195 12.9742 1.5625 12.9742H4.68945V67.9684H1.5625C0.700195 67.9684 0 68.6686 0 69.5309V78.9088C0 79.7711 0.700195 80.4713 1.5625 80.4713H10.9404C11.8027 80.4713 12.5029 79.7711 12.5029 78.9088V75.7819H17.6064C18.4688 75.7819 19.1689 75.0826 19.1689 74.2194C19.1689 73.3571 18.4688 72.6569 17.6064 72.6569H12.5029V69.5309C12.5029 68.6686 11.8027 67.9684 10.9404 67.9684H7.81445V12.9742H10.9404C11.8027 12.9742 12.5029 12.274 12.5029 11.4117V8.28577H67.4971V11.4117C67.4971 12.274 68.1973 12.9742 69.0596 12.9742H72.1855V67.9684H69.0596C68.1973 67.9684 67.4971 68.6686 67.4971 69.5309V72.6569H28.5703C27.7061 72.6569 27.0078 73.3571 27.0078 74.2194C27.0078 75.0826 27.7061 75.7819 28.5703 75.7819H67.4971V78.9088C67.4971 79.7711 68.1973 80.4713 69.0596 80.4713H78.4375C79.2998 80.4713 80 79.7711 80 78.9088V69.5309C80 68.6686 79.2998 67.9684 78.4375 67.9684H75.3105V12.9742H78.4375ZM9.37793 71.0934V77.3463H3.125V71.0934H9.37793ZM9.37793 9.84924H3.125V3.59631H9.37793V9.84924ZM76.875 71.0934V77.3463H70.6221V71.0934H76.875ZM70.6221 9.84924V3.59631H76.875V9.84924H70.6221Z" fill="#0A1F69"/>
<path d="M23.0908 75.7828C22.2285 75.7828 21.5278 75.0831 21.5278 74.2203C21.5278 73.3571 22.2266 72.6578 23.0898 72.6578H23.0908C23.9541 72.6578 24.6533 73.3571 24.6533 74.2203C24.6533 75.0831 23.9541 75.7828 23.0908 75.7828Z" fill="#0A1F69"/>
</svg>
