<svg width="50" height="51" viewBox="0 0 50 51" fill="none" xmlns="http://www.w3.org/2000/svg">
<g clip-path="url(#clip0_48_649)">
<path d="M24.9995 0.471191C11.2145 0.471191 -0.000488281 11.6862 -0.000488281 25.4712C-0.000488281 39.2562 11.2145 50.4712 24.9995 50.4712C38.7845 50.4712 49.9995 39.2562 49.9995 25.4712C49.9995 11.6862 38.7845 0.471191 24.9995 0.471191ZM24.9995 45.9257C13.7207 45.9257 4.54497 36.7498 4.54497 25.4712C4.54497 14.1926 13.7207 5.01665 24.9995 5.01665C36.2783 5.01665 45.4541 14.1926 45.4541 25.4712C45.4541 36.7498 36.2781 45.9257 24.9995 45.9257Z" fill="#7DCD3E"/>
<path d="M38 36.3398L33.7344 36.3398L33.7344 19.2644L38 19.2645L38 36.3398Z" fill="#7DCD3E"/>
<path d="M12 26.3403C12 27.3509 12.5876 28.2265 13.4389 28.6445C13.2126 29.0265 13.0821 29.4718 13.0821 29.9473C13.0821 31.0425 13.7722 31.9792 14.7404 32.3463C14.5472 32.7066 14.4373 33.118 14.4373 33.5544C14.4373 34.9689 15.588 36.1196 17.0025 36.1196L28.6319 36.1196L32.2109 34.7696L32.2109 20.7186L30.792 20.7186L26.0069 15.1829L25.5957 12.9174C25.4656 12.2011 24.8429 11.6812 24.1147 11.6812L23.2346 11.6812C21.5399 11.6812 20.1611 13.06 20.1611 14.7546C20.1611 15.8198 20.366 16.8593 20.7703 17.8447L21.6835 20.168L15.3349 20.168C13.9204 20.168 12.7695 21.3187 12.7695 22.7332C12.7695 23.263 12.9311 23.756 13.2074 24.1652C12.483 24.6191 12 25.4242 12 26.3403Z" fill="#7DCD3E"/>
</g>
<defs>
<clipPath id="clip0_48_649">
<rect width="50" height="50" fill="white" transform="translate(-0.000488281 0.471191)"/>
</clipPath>
</defs>
</svg>
