<svg width="19" height="21" viewBox="0 0 19 21" fill="none" xmlns="http://www.w3.org/2000/svg">
<path d="M13.4847 16.2312C16.0048 15.9312 18.1973 14.3874 18.4723 12.9774C18.9073 10.7548 18.8723 7.55347 18.8723 7.55347C18.8723 3.21587 16.0148 1.94333 16.0148 1.94333C14.5747 1.28457 12.1009 1.00831 9.53086 0.987061H9.46836C6.89705 1.00831 4.42448 1.28457 2.98445 1.94333C2.98445 1.94333 0.128126 3.21462 0.128126 7.55347L0.125626 8.38099C0.120626 9.18101 0.116876 10.0685 0.139377 10.9948C0.243129 15.2374 0.921896 19.42 4.86449 20.4575C6.68204 20.9363 8.24333 21.0363 9.50086 20.9676C11.7797 20.8426 13.0597 20.1588 13.0597 20.1588L12.9847 18.5125C12.9847 18.5125 11.3559 19.025 9.52586 18.9625C7.71332 18.9 5.80077 18.7675 5.50701 16.5524C5.47905 16.347 5.46526 16.1398 5.46576 15.9324C5.46576 15.9324 7.2458 16.3649 9.50086 16.4674C10.8796 16.5299 12.1722 16.3874 13.486 16.2312H13.4847ZM15.501 13.1436H13.4097V8.04349C13.4097 6.96971 12.9547 6.4247 12.0459 6.4247C11.0409 6.4247 10.5371 7.07096 10.5371 8.35099V11.1423H8.45708V8.34974C8.45708 7.06971 7.95332 6.42345 6.9483 6.42345C6.03952 6.42345 5.58451 6.96846 5.58451 8.04349V13.1424H3.49321V7.88973C3.49321 6.81596 3.76822 5.96343 4.31823 5.33217C4.88825 4.7009 5.63326 4.37714 6.55954 4.37714C7.62956 4.37714 8.43958 4.78716 8.97585 5.60593L9.49711 6.4747L10.0184 5.60593C10.5546 4.78716 11.3647 4.37714 12.4359 4.37714C13.361 4.37714 14.106 4.7009 14.6747 5.33217C15.2273 5.96343 15.501 6.81596 15.501 7.88973V13.1436Z" fill="white"/>
</svg>
