<svg width="80" height="81" viewBox="0 0 80 81" fill="none" xmlns="http://www.w3.org/2000/svg">
<circle cx="40" cy="40.4713" r="40" fill="#F2F5FF"/>
<path d="M75.6409 41.6957L76.391 40.4713L75.6409 39.2463C75.5151 39.0419 72.4976 34.1713 66.6351 29.2903C58.8379 22.7992 49.6521 19.3678 40.0702 19.3678C30.4907 19.3678 21.2823 22.7974 13.4406 29.2854C7.54456 34.1639 4.4928 39.0309 4.36584 39.236L3.59985 40.4713L4.36584 41.7067C4.4928 41.9117 7.54456 46.7787 13.4406 51.6572C21.2823 58.1453 30.4907 61.5748 40.0702 61.5748C49.6521 61.5748 58.8379 58.1434 66.6351 51.6523C72.4976 46.7714 75.5151 41.9008 75.6409 41.6957ZM63.5114 48.1526C56.4972 53.9485 48.6102 56.8867 40.0702 56.8867C31.5271 56.8867 23.6145 53.9467 16.5527 48.1471C12.9004 45.1478 10.4242 42.1107 9.21143 40.4713C10.4248 38.8307 12.901 35.7942 16.5527 32.7949C23.6145 26.996 31.5265 24.0553 40.0702 24.0553C48.6102 24.0553 56.4966 26.9941 63.5114 32.7894C67.1472 35.7936 69.6021 38.835 70.7983 40.4713C69.6008 42.1083 67.1466 45.1497 63.5114 48.1526Z" fill="#0A1F69"/>
<path d="M40 26.3881C32.2345 26.3881 25.9167 32.7058 25.9167 40.4713C25.9167 48.2368 32.2345 54.5546 40 54.5546C47.7655 54.5546 54.0833 48.2368 54.0833 40.4713C54.0833 32.7058 47.7655 26.3881 40 26.3881ZM40 49.8671C34.8193 49.8671 30.6042 45.652 30.6042 40.4713C30.6042 35.2906 34.8193 31.0756 40 31.0756C45.1807 31.0756 49.3958 35.2906 49.3958 40.4713C49.3958 45.652 45.1807 49.8671 40 49.8671Z" fill="#0A1F69"/>
<path d="M4.6875 5.15881H14.4727V0.471313H0V14.7682H4.6875V5.15881Z" fill="#0A1F69"/>
<path d="M65.5273 0.471313V5.15881H75.3125V14.7682H80V0.471313H65.5273Z" fill="#0A1F69"/>
<path d="M4.6875 66.1744H0V80.4713H14.4727V75.7838H4.6875V66.1744Z" fill="#0A1F69"/>
<path d="M75.3125 75.7838H65.5273V80.4713H80V66.1744H75.3125V75.7838Z" fill="#0A1F69"/>
</svg>
