<svg width="16" height="17" viewBox="0 0 16 17" fill="none" xmlns="http://www.w3.org/2000/svg">
<path d="M11.5364 5.58655C11.7805 5.83069 11.7805 6.22644 11.5364 6.47046L7.34351 10.6635C7.09937 10.9075 6.70374 10.9075 6.45959 10.6635L4.46362 8.66736C4.21948 8.42334 4.21948 8.02759 4.46362 7.78357C4.70764 7.53943 5.10339 7.53943 5.34741 7.78357L6.90149 9.33765L10.6525 5.58655C10.8966 5.34253 11.2924 5.34253 11.5364 5.58655ZM16 8.125C16 12.547 12.4214 16.125 8 16.125C3.578 16.125 0 12.5464 0 8.125C0 3.703 3.57861 0.125 8 0.125C12.422 0.125 16 3.70361 16 8.125ZM14.75 8.125C14.75 4.39392 11.7306 1.375 8 1.375C4.26892 1.375 1.25 4.39441 1.25 8.125C1.25 11.8561 4.26941 14.875 8 14.875C11.7311 14.875 14.75 11.8556 14.75 8.125Z" fill="#3E3E3E"/>
</svg>
