<svg width="139" height="152" viewBox="0 0 139 152" fill="none" xmlns="http://www.w3.org/2000/svg">
<path d="M0.794678 148.783V8.07975L47.885 2.40565L68.5796 6.34844L75.3426 7.6334L89.8626 10.3994L99.5403 8.49229L106.303 7.15999L138.157 0.890747V141.594L106.303 147.87L99.5403 149.202L89.8626 151.109L47.885 143.115L45.1528 143.447L37.0035 144.427L0.794678 148.783Z" fill="#407BFF"/>
<path opacity="0.2" d="M0.794678 148.783V8.07975L47.885 2.40565L68.5796 6.34844L75.3426 7.6334L89.8626 10.3994L99.5403 8.49229L106.303 7.15999L138.157 0.890747V141.594L106.303 147.87L99.5403 149.202L89.8626 151.109L47.885 143.115L45.1528 143.447L37.0035 144.427L0.794678 148.783Z" fill="black"/>
<path d="M99.5403 79.6992V69.237C99.5403 68.1887 98.5868 67.3974 97.5588 67.6003L0.794678 86.2119V79.3205L39.1879 71.9421C40.1415 71.7528 40.7366 70.7992 40.4796 69.8592L33.1012 43.017C32.8713 42.1784 32.0327 41.6577 31.1806 41.8268L0.794678 47.6835V40.792L36.0431 33.9953C36.8952 33.833 37.7338 34.3537 37.9638 35.1923L47.2087 68.8312C47.4387 69.6698 48.2773 70.1905 49.1294 70.0282L67.227 66.5453C68.0115 66.3965 68.5796 65.7067 68.5796 64.9087V25.3928C68.5796 24.588 68.0048 23.8982 67.2135 23.7562L45.4233 19.739C45.2339 19.7052 45.0446 19.7052 44.862 19.7322L0.794678 26.6643V19.8202L44.9499 12.8746C45.1393 12.8408 45.3286 12.8476 45.5112 12.8814L66.6116 16.7633C67.6396 16.9527 68.5796 16.1682 68.5796 15.1267V6.34839L75.3426 7.63335V62.961C75.3426 64.0092 76.2961 64.8005 77.3309 64.6044L98.1878 60.5872C98.979 60.4384 99.5403 59.7486 99.5403 58.9505V8.49224L106.303 7.15994V57.0096C106.303 58.0578 107.264 58.8423 108.292 58.6462L122.352 55.941C123.136 55.7922 123.704 55.1024 123.704 54.3044V19.7931C123.704 19.0018 124.259 18.3188 125.037 18.1632L138.157 15.4513V22.3563L131.8 23.6683C131.022 23.8306 130.467 24.5136 130.467 25.3049V52.3634C130.467 53.4117 131.421 54.1962 132.449 54.0001L138.157 52.9045V59.7891L107.656 65.6526C106.871 65.8082 106.303 66.4912 106.303 67.296V114.474C106.303 115.502 107.23 116.287 108.251 116.118L138.157 111.147V118.005L107.703 123.063C106.898 123.198 106.303 123.895 106.303 124.713V147.87L99.5403 149.202V89.9451C99.5403 88.9104 98.6138 88.1259 97.5926 88.3017L72.5089 92.6232C71.9949 92.7111 71.5553 93.0357 71.3118 93.4956L45.1528 143.447L37.0035 144.427L46.9991 125.336C47.6348 124.125 46.6203 122.712 45.2678 122.914L0.794678 129.684V122.847L51.5844 115.117C52.1119 115.036 52.565 114.711 52.8152 114.238L66.8754 87.3955C67.1121 86.9356 67.5584 86.6177 68.0656 86.5298L98.1607 81.3426C98.9587 81.2006 99.5403 80.5108 99.5403 79.6992Z" fill="#407BFF"/>
<path d="M89.8558 147.667L48.5207 139.795L48.0067 139.693L47.486 139.754L44.7538 140.086L36.6044 141.066L4.18291 144.968V11.0757L47.7768 5.82093L67.9574 9.66904L74.7204 10.954L89.2404 13.72L89.8829 13.8418L90.5253 13.7133L100.203 11.8061L106.966 10.4738L134.782 4.99585V138.807L105.654 144.549L98.8911 145.881L89.8558 147.66M89.8693 151.102L99.5471 149.195L106.31 147.863L138.163 141.587V0.890747L106.31 7.15999L99.5471 8.49229L89.8693 10.3994L75.3493 7.6334L68.5864 6.34844L47.8918 2.40565L0.794678 8.07975V148.783L37.0035 144.427L45.1528 143.447L47.885 143.115L89.8626 151.109L89.8693 151.102Z" fill="#263238"/>
<path opacity="0.1" d="M89.8558 147.667L48.5207 139.795L48.0067 139.693L47.486 139.754L44.7538 140.086L36.6044 141.066L4.18291 144.968V11.0757L47.7768 5.82093L67.9574 9.66904L74.7204 10.954L89.2404 13.72L89.8829 13.8418L90.5253 13.7133L100.203 11.8061L106.966 10.4738L134.782 4.99585V138.807L105.654 144.549L98.8911 145.881L89.8558 147.66M89.8693 151.102L99.5471 149.195L106.31 147.863L138.163 141.587V0.890747L106.31 7.15999L99.5471 8.49229L89.8693 10.3994L75.3493 7.6334L68.5864 6.34844L47.8918 2.40565L0.794678 8.07975V148.783L37.0035 144.427L45.1528 143.447L47.885 143.115L89.8626 151.109L89.8693 151.102Z" fill="white"/>
<path opacity="0.1" d="M89.8626 151.109V10.3994L47.885 2.40564V143.115L89.8626 151.109Z" fill="black"/>
<g opacity="0.5">
<path d="M121.202 59.2009C121.526 59.2009 121.81 59.4308 121.865 59.7555C121.932 60.1207 121.689 60.4723 121.317 60.54L103.598 63.7186V83.9397C103.598 84.2711 103.361 84.5484 103.037 84.6093L69.9185 90.324L53.5657 121.339C53.3898 121.67 52.9841 121.792 52.6527 121.623C52.3213 121.447 52.1928 121.041 52.3686 120.71L68.877 89.3974C68.9784 89.2148 69.1542 89.0796 69.3571 89.0458L102.245 83.3649V63.1437C102.245 62.8191 102.482 62.535 102.8 62.4809L121.073 59.2009C121.114 59.1941 121.154 59.1874 121.195 59.1874L121.202 59.2009Z" fill="white"/>
<path d="M51.6992 121.028C51.6992 120.324 52.2673 119.756 52.9706 119.756C53.674 119.756 54.2421 120.324 54.2421 121.028C54.2421 121.731 53.674 122.299 52.9706 122.299C52.2673 122.299 51.6992 121.731 51.6992 121.028Z" fill="white"/>
<path d="M119.93 59.8771C119.93 59.1738 120.498 58.6057 121.202 58.6057C121.905 58.6057 122.473 59.1738 122.473 59.8771C122.473 60.5805 121.905 61.1486 121.202 61.1486C120.498 61.1486 119.93 60.5805 119.93 59.8771Z" fill="white"/>
</g>
<path d="M53.6266 101.084C50.6509 98.108 45.8222 98.108 42.8465 101.084C39.8708 104.059 39.8708 108.888 42.8465 111.864L48.2366 117.254L53.6266 111.864C56.6023 108.888 56.6023 104.059 53.6266 101.084ZM46.0454 108.665C44.8348 107.454 44.8348 105.493 46.0454 104.283C47.2559 103.072 49.2172 103.072 50.4278 104.283C51.6383 105.493 51.6383 107.454 50.4278 108.665C49.2172 109.876 47.2559 109.876 46.0454 108.665Z" fill="white"/>
<path opacity="0.2" d="M53.6266 101.084C52.1252 99.5823 50.1572 98.8383 48.1892 98.8519V103.376C49.0008 103.363 49.8123 103.66 50.4277 104.283C51.6383 105.493 51.6383 107.454 50.4277 108.665C49.8123 109.28 48.994 109.578 48.1892 109.571V117.206L48.2365 117.254L53.6266 111.864C56.6023 108.888 56.6023 104.059 53.6266 101.084Z" fill="black"/>
<path d="M126.592 38.6618C123.617 35.6861 118.788 35.6861 115.812 38.6618C112.836 41.6375 112.836 46.4663 115.812 49.442L121.202 54.832L126.592 49.442C129.568 46.4663 129.568 41.6375 126.592 38.6618ZM119.011 46.2431C117.8 45.0325 117.8 43.0713 119.011 41.8607C120.222 40.6501 122.183 40.6501 123.393 41.8607C124.604 43.0713 124.604 45.0325 123.393 46.2431C122.183 47.4536 120.222 47.4536 119.011 46.2431Z" fill="white"/>
<path opacity="0.2" d="M126.592 38.6618C125.091 37.1604 123.123 36.4165 121.155 36.43V40.9544C121.966 40.9409 122.778 41.2384 123.393 41.8606C124.604 43.0712 124.604 45.0324 123.393 46.243C122.778 46.8584 121.96 47.156 121.155 47.1493V54.7846L121.202 54.8319L126.592 49.4419C129.568 46.4662 129.568 41.6375 126.592 38.6618Z" fill="black"/>
</svg>
