<svg width="50" height="51" viewBox="0 0 50 51" fill="none" xmlns="http://www.w3.org/2000/svg">
<g clip-path="url(#clip0_48_627)">
<path d="M24.9995 0.471313C11.1819 0.471313 -0.000488281 11.6527 -0.000488281 25.4713C-0.000488281 39.289 11.1809 50.4713 24.9995 50.4713C38.8171 50.4713 49.9995 39.29 49.9995 25.4713C49.9995 11.6536 38.8182 0.471313 24.9995 0.471313ZM24.9995 46.5651C13.3409 46.5651 3.90576 37.1308 3.90576 25.4713C3.90576 13.8126 13.34 4.37756 24.9995 4.37756C36.6581 4.37756 46.0933 13.8118 46.0933 25.4713C46.0933 37.13 36.659 46.5651 24.9995 46.5651Z" fill="#FF5F2D"/>
<path d="M12 14.6602H16.2656V31.7355H12V14.6602Z" fill="#FF5F2D"/>
<path d="M38 24.6597C38 23.649 37.4124 22.7734 36.5611 22.3555C36.7874 21.9734 36.9179 21.5281 36.9179 21.0526C36.9179 19.9574 36.2278 19.0208 35.2596 18.6536C35.4528 18.2934 35.5627 17.882 35.5627 17.4456C35.5627 16.031 34.412 14.8803 32.9975 14.8803H21.3681L17.7891 16.2304V30.2813H19.208L23.9931 35.8171L24.4043 38.0826C24.5344 38.7989 25.1571 39.3188 25.8853 39.3188H26.7654C28.4601 39.3188 29.8389 37.94 29.8389 36.2453C29.8389 35.1801 29.634 34.1407 29.2297 33.1552L28.3165 30.832H34.6651C36.0796 30.832 37.2305 29.6813 37.2305 28.2667C37.2305 27.7369 37.0689 27.244 36.7926 26.8347C37.517 26.3809 38 25.5757 38 24.6597Z" fill="#FF5F2D"/>
</g>
<defs>
<clipPath id="clip0_48_627">
<rect width="50" height="50" fill="white" transform="translate(-0.000488281 0.471313)"/>
</clipPath>
</defs>
</svg>
