<svg width="70" height="67" viewBox="0 0 70 67" fill="none" xmlns="http://www.w3.org/2000/svg">
<circle cx="40.4688" cy="36.5938" r="29.5312" fill="#F2F5FF"/>
<path d="M65.273 28.6534L58.2925 20.8908C57.405 19.9045 56.0313 19.5743 54.7925 20.0496C53.5536 20.5247 52.7532 21.6893 52.7532 23.0161V26.2533H42.9126C40.9564 26.2533 39.0911 26.6504 37.3933 27.3684V13.8376H40.806C42.1326 13.8376 43.2969 13.0375 43.7723 11.799C44.248 10.56 43.918 9.18552 42.9312 8.29692L35.1698 1.31643C33.9583 0.22775 32.1312 0.227879 30.9196 1.31669L23.1579 8.29744C22.1716 9.18552 21.8417 10.56 22.3173 11.799C22.7927 13.0375 23.957 13.8376 25.2836 13.8376H28.6963V20.7638C28.6963 21.2984 29.1297 21.7319 29.6644 21.7319C30.1991 21.7319 30.6325 21.2984 30.6325 20.7638V12.8696C30.6325 12.335 30.1991 11.9015 29.6644 11.9015H25.2836C24.4921 11.9015 24.1966 11.2919 24.1249 11.1051C24.053 10.9181 23.8645 10.2665 24.453 9.73657L32.2139 2.75659C32.6876 2.33088 33.402 2.33088 33.8754 2.75634L41.6362 9.73619C42.2252 10.2666 42.0367 10.9182 41.9649 11.1052C41.8931 11.292 41.5976 11.9017 40.8061 11.9017H36.4253C35.8907 11.9017 35.4572 12.3351 35.4572 12.8698V28.3699C33.473 29.597 31.8117 31.2979 30.6324 33.3139V24.636C30.6324 24.1013 30.1989 23.6679 29.6643 23.6679C29.1296 23.6679 28.6962 24.1013 28.6962 24.636V39.9246C26.9986 39.2068 25.1336 38.8096 23.1777 38.8096H13.337V35.5725C13.337 34.2455 12.5364 33.081 11.2975 32.6059C10.0585 32.1307 8.68459 32.4612 7.79728 33.4479L0.81704 41.2093C-0.272282 42.4205 -0.272411 44.2474 0.81704 45.4587L7.79753 53.2202C8.68497 54.2069 10.0587 54.5372 11.2977 54.0622C12.5368 53.587 13.3372 52.4226 13.3372 51.0956V47.5061H23.1779C26.2211 47.5061 28.6969 49.9819 28.6969 53.0251V65.1569C28.6969 65.6915 29.1304 66.125 29.6651 66.125H36.4253C36.96 66.125 37.3934 65.6915 37.3934 65.1569V53.0283C37.3934 53.0274 37.3936 53.0267 37.3936 53.0259V40.4683C37.3936 37.4249 39.8695 34.949 42.9129 34.949H52.7534V38.5385C52.7534 39.8653 53.5539 41.0298 54.7928 41.5051C56.0315 41.9803 57.4054 41.6502 58.293 40.6637L60.0084 38.756C60.3658 38.3584 60.3333 37.7463 59.9358 37.3889C59.5382 37.0315 58.9261 37.0639 58.5687 37.4614L56.8535 39.369C56.3242 39.9574 55.6733 39.7693 55.4864 39.6974C55.2994 39.6258 54.6897 39.3303 54.6897 38.5385V33.9809C54.6897 33.4462 54.2562 33.0128 53.7215 33.0128H42.9129C38.802 33.0128 35.4575 36.3573 35.4575 40.4682V45.8704C34.2782 43.8542 32.617 42.1531 30.6327 40.926V40.468C30.6327 33.6974 36.1415 28.1891 42.9127 28.1891H53.7214C54.2561 28.1891 54.6895 27.7556 54.6895 27.221V23.0158C54.6895 22.224 55.2993 21.9285 55.4862 21.8569C55.6731 21.785 56.324 21.597 56.8532 22.1851L63.8338 29.948C64.2591 30.4205 64.259 31.1341 63.8337 31.6074L61.1515 34.5891C60.7939 34.9866 60.8263 35.5987 61.2239 35.9562C61.6214 36.3138 62.2336 36.2814 62.591 35.8839L65.2735 32.9019C66.3623 31.6903 66.3622 29.8637 65.273 28.6534ZM35.4571 53.0251V64.1889H30.6329V53.0251C30.6329 48.9144 27.2885 45.57 23.1778 45.57H12.3691C11.8344 45.57 11.401 46.0034 11.401 46.5381V51.0956C11.401 51.8874 10.7912 52.1827 10.6043 52.2545C10.4174 52.3261 9.76629 52.5142 9.23693 51.9256L2.25643 44.1642C1.83085 43.6909 1.83085 42.9772 2.25643 42.504L9.23693 34.7426C9.76655 34.154 10.4174 34.342 10.6043 34.4137C10.7912 34.4855 11.401 34.7808 11.401 35.5726V39.7777C11.401 40.3123 11.8344 40.7458 12.3691 40.7458H23.1778C29.9486 40.7458 35.4571 46.2542 35.4571 53.0251Z" fill="#0A1F69"/>
</svg>
